<?xml version="1.0" encoding="utf-8"?>
<!-- Generator: Adobe Illustrator 20.0.0, SVG Export Plug-In . SVG Version: 6.00 Build 0)  -->
<svg version="1.1" id="Layer_1" xmlns="http://www.w3.org/2000/svg" xmlns:xlink="http://www.w3.org/1999/xlink" x="0px" y="0px"
	 viewBox="0 0 1920 1080" style="enable-background:new 0 0 1920 1080;" xml:space="preserve">
<style type="text/css">
	.st0{opacity:0.1;}
	.st1{fill:#517EAB;}
	.st2{fill:#2A4D83;}
	.st3{fill:#873061;}
	.st4{fill:#E9B057;}
	.st5{fill:#ECEECA;}
	.st6{fill:#A48698;}
	.st7{fill:#76B04D;}
	.st8{fill:#E3DD6C;}
	.st9{fill:#88556D;}
	.st10{fill:url(#SVGID_1_);}
	.st11{fill:#4B2848;}
	.st12{fill:url(#SVGID_2_);}
	.st13{fill:#7B3F53;}
	.st14{fill:url(#SVGID_3_);}
	.st15{fill:url(#SVGID_4_);}
	.st16{fill:url(#SVGID_5_);}
	.st17{fill:url(#SVGID_6_);}
	.st18{fill:url(#SVGID_7_);}
	.st19{fill:url(#SVGID_8_);}
	.st20{fill:url(#SVGID_9_);}
	.st21{fill:url(#SVGID_10_);}
	.st22{fill:url(#SVGID_11_);}
	.st23{fill:url(#SVGID_12_);}
	.st24{fill:#D03A4F;}
	.st25{fill:#F58355;}
	.st26{fill:url(#SVGID_13_);}
	.st27{fill:url(#SVGID_14_);}
	.st28{fill:url(#SVGID_15_);}
	.st29{fill:url(#SVGID_16_);}
	.st30{fill:url(#SVGID_17_);}
	.st31{fill:url(#SVGID_18_);}
	.st32{fill:url(#SVGID_19_);}
	.st33{fill:url(#SVGID_20_);}
	.st34{fill:url(#SVGID_21_);}
	.st35{fill:url(#SVGID_22_);}
	.st36{fill:url(#SVGID_23_);}
	.st37{fill:url(#SVGID_24_);}
	.st38{fill:url(#SVGID_25_);}
	.st39{fill:url(#SVGID_26_);}
	.st40{fill:url(#SVGID_27_);}
	.st41{fill:url(#SVGID_28_);}
	.st42{fill:url(#SVGID_29_);}
</style>
<g class="st0">
	<g>
		<rect x="487" y="441.6" class="st1" width="2.1" height="76.3"/>
		<rect x="512.5" y="404" class="st1" width="2.2" height="113.9"/>
		<polygon class="st1" points="474.8,514.7 474.8,542.7 502.6,542.7 502.6,493 		"/>
		<polygon class="st2" points="502.6,493 534.9,517.9 534.9,542.7 502.6,542.7 		"/>
	</g>
	<g>
		<polygon class="st3" points="1739.5,853.5 1739.5,885 1803.1,897.1 1803.1,871.4 		"/>
		<polygon class="st4" points="1739.5,853.5 1671.5,873.3 1671.5,897.1 1739.5,885 		"/>
		<polygon class="st5" points="1739.5,853.5 1669,873.9 1669,861.6 1739.5,839.3 		"/>
		<polygon class="st6" points="1739.5,839.3 1739.5,853.5 1806.2,872.8 1806.2,860.5 		"/>
		<polygon class="st3" points="1740,881.4 1740,1078.1 1817.9,1078.1 1817.9,901.1 		"/>
		<polygon class="st4" points="1740,881.4 1656.6,903.2 1656.6,1078.1 1740,1078.1 		"/>
		<polygon class="st5" points="1740,881.4 1653.6,903.9 1653.6,890.4 1740,865.7 		"/>
		<polygon class="st6" points="1740,865.7 1740,881.4 1821.7,902.7 1821.7,889.2 		"/>
		<polygon class="st7" points="1817.9,1042.9 1740,1036.4 1740,1078.1 1817.9,1078.1 		"/>
		<path class="st3" d="M1764.8,1078.1H1749v-27.9c0-7.4,15.8-5.2,15.8,2.2V1078.1z M1787.9,1054.1c0-6.9-15.8-9.1-15.8-2.2v26.1
			h15.8V1054.1z M1810.9,1055.7c0-6.5-15.8-8.6-15.8-2.2v24.5h15.8V1055.7z"/>
		<polygon class="st8" points="1656.6,1044.6 1740,1036.4 1740,1078.1 1656.6,1078.1 		"/>
		<path class="st9" d="M1681.1,933l-15.2,3.6v-25.1l15.2-3.9V933z M1688.8,905.7v25.5l17-4.1v-25.8L1688.8,905.7z M1705.8,1030.5
			v-25.9l-17,2.7v25.3L1705.8,1030.5z M1688.8,939.5V965l17-3.4v-25.9L1688.8,939.5z M1681.1,941.3l-15.2,3.4v24.9l15.2-3.1V941.3z
			 M1688.8,973.4v25.4l17-2.8v-25.9L1688.8,973.4z M1713.6,960l15.6-3.1v-26.4l-15.6,3.5V960z M1681.1,974.9l-15.2,2.9v24.7
			l15.2-2.5V974.9z M1713.6,994.8l15.6-2.5v-26.6l-15.6,3V994.8z M1713.6,899.3v26l15.6-3.7v-26.2L1713.6,899.3z M1713.6,1029.5
			l15.6-1.9v-26.7l-15.6,2.5V1029.5z M1681.1,1008.5l-15.2,2.4v24.5l15.2-1.9V1008.5z"/>
		<linearGradient id="SVGID_1_" gradientUnits="userSpaceOnUse" x1="1698.8558" y1="902.4784" x2="1698.8558" y2="1035.8081">
			<stop  offset="0" style="stop-color:#2EBCB0"/>
			<stop  offset="5.634495e-02" style="stop-color:#67C6B6"/>
			<stop  offset="0.1204" style="stop-color:#8BCFBC"/>
			<stop  offset="0.183" style="stop-color:#A2D7C0"/>
			<stop  offset="0.2431" style="stop-color:#B0DCC3"/>
			<stop  offset="0.2976" style="stop-color:#B4DDC4"/>
			<stop  offset="0.4126" style="stop-color:#ABDAC2"/>
			<stop  offset="0.5973" style="stop-color:#93D2BD"/>
			<stop  offset="0.8273" style="stop-color:#67C6B6"/>
			<stop  offset="1" style="stop-color:#2EBCB0"/>
		</linearGradient>
		<path class="st10" d="M1668.5,1013.2l12.6-2v22.3l-12.6,1.6V1013.2z M1691.4,1009.5l14.4-2.3v23.2l-14.4,1.8V1009.5z
			 M1716.2,1005.5l13.1-2.1v24.1l-13.1,1.6V1005.5z M1668.5,980l12.6-2.4v22.5l-12.6,2V980z M1691.4,975.6l14.4-2.8V996l-14.4,2.3
			V975.6z M1716.2,970.8l13.1-2.5v23.9l-13.1,2.1V970.8z M1668.5,946.8l12.6-2.8v22.6l-12.6,2.5V946.8z M1691.4,941.7l14.4-3.2v23.2
			l-14.4,2.9V941.7z M1716.2,936.1l13.1-2.9v23.7l-13.1,2.6V936.1z M1668.5,913.6l12.6-3.2v22.7l-12.6,3V913.6z M1691.4,907.8
			l14.4-3.7v23.1l-14.4,3.4V907.8z M1716.2,901.4l13.1-3.3v23.5l-13.1,3.1V901.4z"/>
		<path class="st11" d="M1795.4,907l15.2,3.3v25.1l-15.2-3.1V907z M1770.7,901.6v25.8l17,3.5v-25.5L1770.7,901.6z M1787.7,1032.3
			V1007l-17-2.1v25.9L1787.7,1032.3z M1770.7,936v25.9l17,2.8v-25.5L1770.7,936z M1795.4,965.9l15.2,2.5v-24.9l-15.2-2.9V965.9z
			 M1770.7,970.4v25.9l17,2.1v-25.4L1770.7,970.4z M1762.9,934.6l-15.7-2.9V958l15.7,2.6V934.6z M1795.4,999.4l15.2,1.9v-24.7
			l-15.2-2.4V999.4z M1762.9,969.2l-15.7-2.4v26.6l15.7,2V969.2z M1747.3,896.5v26.2l15.7,3.2v-26L1747.3,896.5z M1762.9,1003.9
			l-15.7-1.9v26.7l15.7,1.4V1003.9z M1795.4,1032.9l15.2,1.3v-24.5l-15.2-1.9V1032.9z"/>
		<linearGradient id="SVGID_2_" gradientUnits="userSpaceOnUse" x1="1777.6444" y1="899.3176" x2="1777.6444" y2="1037.876">
			<stop  offset="0" style="stop-color:#0686A6"/>
			<stop  offset="3.828741e-02" style="stop-color:#3493AA"/>
			<stop  offset="0.1071" style="stop-color:#59AAAF"/>
			<stop  offset="0.1744" style="stop-color:#70BBB3"/>
			<stop  offset="0.239" style="stop-color:#7DC7B5"/>
			<stop  offset="0.2976" style="stop-color:#81CCB7"/>
			<stop  offset="0.4243" style="stop-color:#79C3B5"/>
			<stop  offset="0.6279" style="stop-color:#61AFB1"/>
			<stop  offset="0.8815" style="stop-color:#3493AA"/>
			<stop  offset="1" style="stop-color:#0686A6"/>
		</linearGradient>
		<path class="st12" d="M1795.4,1032.9v-22.4l12.6,1.6v21.9L1795.4,1032.9z M1770.7,1030.7v-23.2l14.4,1.8v22.7L1770.7,1030.7z
			 M1747.3,1028.6v-24.1l13.1,1.6v23.6L1747.3,1028.6z M1795.4,999.4v-22.5l12.6,2v22.1L1795.4,999.4z M1770.7,996.3v-23.2l14.4,2.2
			v22.8L1770.7,996.3z M1747.3,993.3v-23.9l13.1,2V995L1747.3,993.3z M1795.4,965.9v-22.6l12.6,2.4V968L1795.4,965.9z M1770.7,961.9
			v-23.2l14.4,2.7v22.8L1770.7,961.9z M1747.3,958v-23.7l13.1,2.4v23.4L1747.3,958z M1795.4,932.5v-22.7l12.6,2.8V935L1795.4,932.5z
			 M1770.7,927.5v-23.1l14.4,3.2v22.9L1770.7,927.5z M1747.3,922.7v-23.5l13.1,2.9v23.3L1747.3,922.7z"/>
		<g>
			<path class="st11" d="M1804.8,1056.8c0-3.3-4.2-5.5-8.3-6c-0.9,0.6-1.4,1.5-1.4,2.7v24.5h9.7V1056.8z"/>
			<path class="st11" d="M1758.7,1053.4c0-3.7-4-6.1-7.9-6.6c-1.1,0.7-1.8,1.8-1.8,3.4v27.9h9.7V1053.4z"/>
			<path class="st11" d="M1781.7,1055.2c0-3.5-4.1-5.8-8.1-6.3c-1,0.7-1.6,1.7-1.6,3v26.1h9.7V1055.2z"/>
		</g>
		<path class="st6" d="M1713.6,1052.4c0-7.4,17-9.5,17-2.2v27.9h-17V1052.4z M1688.8,1078.1h17V1052c0-6.9-17-4.7-17,2.2V1078.1z
			 M1664.1,1078.1h17v-24.5c0-6.5-17-4.3-17,2.2V1078.1z"/>
		<g>
			<path class="st3" d="M1676.8,1049.9c-4.1,0.6-8.2,2.7-8.2,5.9v22.3h12.5v-24.5C1681.1,1051.5,1679.2,1050.3,1676.8,1049.9z"/>
			<path class="st3" d="M1701.4,1048c-4.1,0.6-8.1,2.8-8.1,6.2v23.9h12.5V1052C1705.8,1049.7,1703.9,1048.4,1701.4,1048z"/>
			<path class="st3" d="M1726.1,1045.8c-4.1,0.7-8,3-8,6.5v25.7h12.5v-27.9C1730.6,1047.7,1728.6,1046.3,1726.1,1045.8z"/>
		</g>
		<polygon class="st13" points="1669,873.9 1739.5,853.5 1806.2,872.8 1803.1,875.3 1740,857.4 1671.5,875.3 		"/>
		<polygon class="st13" points="1653.6,903.9 1740,881.4 1821.7,902.7 1817.9,904.5 1740,886.2 1656.6,905.3 		"/>
	</g>
	<g>
		<polygon class="st4" points="562.4,513.9 562.4,611.2 433.6,611.2 433.6,557.3 		"/>
		<polygon class="st3" points="562.4,513.9 626,553.7 626,611.2 562.4,611.2 		"/>
		<polygon class="st6" points="562.4,513.9 628.9,554.5 628.9,545.3 562.4,502.1 		"/>
		<polygon class="st5" points="562.4,502.1 562.4,513.9 429.9,559.4 429.9,549.9 		"/>
		<polygon class="st4" points="572.6,570.4 572.6,691.5 403.8,691.5 403.8,612 		"/>
		<polygon class="st3" points="572.6,570.4 656,614.1 656,691.5 572.6,691.5 		"/>
		<polygon class="st6" points="572.6,570.4 659.9,615.1 659.9,603 572.6,555 		"/>
		<polygon class="st5" points="572.6,555 572.6,570.4 398.9,614.7 398.9,602.3 		"/>
		<path class="st9" d="M416.7,621.8l15.1-3.5V657l-15.1,3.2V621.8z M442.1,655.6l15.1-3.2v-40.3l-15.1,3.4V655.6z M467.5,651
			l15.1-3.1v-42l-15.1,3.4V651z M492.9,646.5l15.1-3.1v-43.7l-15.1,3.3V646.5z M518.3,641.9l15.1-3v-45.3l-15.1,3.3V641.9z
			 M543.7,637.3l15.1-3v-47l-15.1,3.2V637.3z"/>
		<linearGradient id="SVGID_3_" gradientUnits="userSpaceOnUse" x1="489.4291" y1="595.1788" x2="489.4291" y2="649.274">
			<stop  offset="0" style="stop-color:#2EBCB0"/>
			<stop  offset="5.634495e-02" style="stop-color:#67C6B6"/>
			<stop  offset="0.1204" style="stop-color:#8BCFBC"/>
			<stop  offset="0.183" style="stop-color:#A2D7C0"/>
			<stop  offset="0.2431" style="stop-color:#B0DCC3"/>
			<stop  offset="0.2976" style="stop-color:#B4DDC4"/>
			<stop  offset="0.4126" style="stop-color:#ABDAC2"/>
			<stop  offset="0.5973" style="stop-color:#93D2BD"/>
			<stop  offset="0.8273" style="stop-color:#67C6B6"/>
			<stop  offset="1" style="stop-color:#2EBCB0"/>
		</linearGradient>
		<path class="st14" d="M420.1,624.6l11.7-2.7v35.2l-11.7,2.5V624.6z M445.5,618.4l11.7-2.7v36.9l-11.7,2.5V618.4z M470.9,612.1
			l11.7-2.6V648l-11.7,2.4V612.1z M496.3,605.9l11.7-2.6v40.2l-11.7,2.4V605.9z M521.6,599.6l11.7-2.5V639l-11.7,2.4V599.6z
			 M547,593.4l11.7-2.5v43.5l-11.7,2.3V593.4z"/>
		<path class="st11" d="M649.3,649.5l-8.9-3.5v-30.6l8.9,4.3V649.5z M634.5,612.3l-8.9-4.5v33.6l8.9,3.4V612.3z M619.8,604.8
			l-8.9-4.6v36.5l8.9,3.4V604.8z M605,597.4l-8.9-4.7v39.4l8.9,3.3V597.4z M590.2,590l-8.9-4.8v42.4l8.9,3.3V590z"/>
		<linearGradient id="SVGID_4_" gradientUnits="userSpaceOnUse" x1="613.6597" y1="601.5722" x2="613.6597" y2="641.4185">
			<stop  offset="0" style="stop-color:#0686A6"/>
			<stop  offset="3.828741e-02" style="stop-color:#3493AA"/>
			<stop  offset="0.1071" style="stop-color:#59AAAF"/>
			<stop  offset="0.1744" style="stop-color:#70BBB3"/>
			<stop  offset="0.239" style="stop-color:#7DC7B5"/>
			<stop  offset="0.2976" style="stop-color:#81CCB7"/>
			<stop  offset="0.4243" style="stop-color:#79C3B5"/>
			<stop  offset="0.6279" style="stop-color:#61AFB1"/>
			<stop  offset="0.8815" style="stop-color:#3493AA"/>
			<stop  offset="1" style="stop-color:#0686A6"/>
		</linearGradient>
		<path class="st15" d="M640.4,646v-26.8l5.5,2.7v26.3L640.4,646z M625.7,641.4v-29.7l5.5,2.8v29L625.7,641.4z M610.9,636.8v-32.6
			l5.5,2.9v31.8L610.9,636.8z M596.1,632.1v-35.5l5.5,2.9v34.6L596.1,632.1z M581.4,627.5v-38.4l5.5,3v37.4L581.4,627.5z"/>
		<polygon class="st4" points="585.5,650.4 585.5,1078.1 366.4,1078.1 366.4,688.6 		"/>
		<polygon class="st3" points="585.5,650.4 693.7,683.5 693.7,1078.1 585.5,1078.1 		"/>
		<polygon class="st6" points="585.5,650.4 698.7,684.6 698.7,671.4 585.5,633.6 		"/>
		<polygon class="st5" points="585.5,633.6 585.5,650.4 360.1,691.5 360.1,678 		"/>
		<path class="st9" d="M505.5,754.3v50.3l-18,1.8v-49.8L505.5,754.3z M434.2,750.6l18-2.3V699l-18,2.9V750.6z M460.8,747.3l18-2.3
			v-50.2l-18,2.9V747.3z M487.5,693.4v50.5l18-2.3v-51.1L487.5,693.4z M407.5,754l18-2.3v-48.4l-18,2.9V754z M425.6,995.6v-46.8
			l-18,0.7V996L425.6,995.6z M425.6,934.6v-47.2l-18,1.2v46.9L425.6,934.6z M425.6,812.7v-48l-18,2.3v47.5L425.6,812.7z
			 M487.5,819.9V869l18-1.4v-49.5L487.5,819.9z M425.6,873.6V826l-18,1.8V875L425.6,873.6z M478.9,931.9v-48.2l-18,1.2v47.9
			L478.9,931.9z M460.8,760.1v49l18-1.8v-49.6L460.8,760.1z M434.2,811.8l18-1.8v-48.8l-18,2.3V811.8z M460.8,822.5V871l18-1.4
			v-48.9L460.8,822.5z M452.2,871.6v-48.3l-18,1.8V873L452.2,871.6z M425.6,1056.5v-46.4l-18,0.1v46.3H425.6z M452.2,933.3v-47.7
			l-18,1.2v47.4L452.2,933.3z M505.5,945.7l-18,0.7V994l18-0.5V945.7z M478.9,946.7l-18,0.7v47.3l18-0.5V946.7z M452.2,994.9v-47.2
			l-18,0.7v46.9L452.2,994.9z M487.5,883.2v48.3l18-0.9v-48.7L487.5,883.2z M478.9,1009.7l-18,0.1v46.7h18V1009.7z M540.8,1056.5
			h21.5v-47.5l-21.5,0.2V1056.5z M398.9,828.6l-17.4,1.7v46.6l17.4-1.3V828.6z M540.8,992.7l21.5-0.5v-48.6l-21.5,0.8V992.7z
			 M398.9,889.2l-17.4,1.2v46.4l17.4-0.9V889.2z M398.9,949.7l-17.4,0.7v46.3l17.4-0.4V949.7z M398.9,1010.3l-17.4,0.1v46.1h17.4
			V1010.3z M540.8,684.9v52.3l21.5-2.7v-53.1L540.8,684.9z M540.8,801.1l21.5-2.2V747l-21.5,2.8V801.1z M540.8,928.8l21.5-1.1v-49.7
			l-21.5,1.5V928.8z M540.8,865l21.5-1.6v-50.8l-21.5,2.1V865z M514.2,817.3V867l18-1.4v-50.1L514.2,817.3z M514.2,945.4v48l18-0.5
			v-48.2L514.2,945.4z M532.2,1009.3l-18,0.1v47.1h18V1009.3z M514.2,881.3v48.8l18-0.9v-49.1L514.2,881.3z M505.5,1009.5l-18,0.1
			v46.9h18V1009.5z M514.2,753.2v50.6l18-1.8v-51.1L514.2,753.2z M398.9,707.5l-17.4,2.8v47l17.4-2.2V707.5z M514.2,689.2v51.4
			l18-2.3v-52L514.2,689.2z M398.9,768.1l-17.4,2.2v46.8l17.4-1.7V768.1z M452.2,1009.9l-18,0.1v46.5h18V1009.9z"/>
		<linearGradient id="SVGID_5_" gradientUnits="userSpaceOnUse" x1="473.6302" y1="691.6573" x2="473.6302" y2="1071.0604">
			<stop  offset="0" style="stop-color:#2EBCB0"/>
			<stop  offset="5.634495e-02" style="stop-color:#67C6B6"/>
			<stop  offset="0.1204" style="stop-color:#8BCFBC"/>
			<stop  offset="0.183" style="stop-color:#A2D7C0"/>
			<stop  offset="0.2431" style="stop-color:#B0DCC3"/>
			<stop  offset="0.2976" style="stop-color:#B4DDC4"/>
			<stop  offset="0.4126" style="stop-color:#ABDAC2"/>
			<stop  offset="0.5973" style="stop-color:#93D2BD"/>
			<stop  offset="0.8273" style="stop-color:#67C6B6"/>
			<stop  offset="1" style="stop-color:#2EBCB0"/>
		</linearGradient>
		<path class="st16" d="M544.2,1056.4v-44l18.2-0.1v44.1H544.2z M517.5,1056.4v-43.8l14.7-0.1v43.9H517.5z M490.9,1056.4v-43.6
			l14.7-0.1v43.7H490.9z M464.2,1056.4V1013l14.7-0.1v43.5H464.2z M437.5,1056.4v-43.2l14.7-0.1v43.3H437.5z M410.9,1056.4v-43
			l14.7-0.1v43.1H410.9z M384.9,1056.4v-42.8l14-0.1v42.9H384.9z M384.9,953.5l14-0.5v43.1l-14,0.4V953.5z M410.9,952.6l14.7-0.6
			v43.5l-14.7,0.4V952.6z M437.5,951.5l14.7-0.6v43.8l-14.7,0.4V951.5z M464.2,950.5l14.7-0.6v44.1l-14.7,0.4V950.5z M490.9,949.5
			l14.7-0.6v44.5l-14.7,0.4V949.5z M517.5,948.5l14.7-0.6v44.8l-14.7,0.4V948.5z M544.2,947.5l18.2-0.7V992l-18.2,0.5V947.5z
			 M384.9,893.5l14-1v43.4l-14,0.7V893.5z M410.9,891.7l14.7-1v43.8l-14.7,0.7V891.7z M437.5,889.9l14.7-1v44.3l-14.7,0.7V889.9z
			 M464.2,888.1l14.7-1v44.8l-14.7,0.7V888.1z M490.9,886.2l14.7-1v45.3l-14.7,0.7V886.2z M517.5,884.4l14.7-1v45.8l-14.7,0.7V884.4
			z M544.2,882.6l18.2-1.2v46.3l-18.2,0.9V882.6z M384.9,833.4l14-1.4v43.6l-14,1.1V833.4z M410.9,830.8l14.7-1.4v44.2l-14.7,1.1
			V830.8z M437.5,828.2l14.7-1.4v44.9l-14.7,1.1V828.2z M464.2,825.6l14.7-1.4v45.5l-14.7,1.1V825.6z M490.9,823l14.7-1.4v46.1
			l-14.7,1.1V823z M517.5,820.3l14.7-1.4v46.7l-14.7,1.1V820.3z M544.2,817.7l18.2-1.8v47.4l-18.2,1.4V817.7z M384.9,773.3l14-1.8
			v43.9l-14,1.4V773.3z M410.9,769.9l14.7-1.9v44.6l-14.7,1.5V769.9z M437.5,766.5l14.7-1.9V810l-14.7,1.5V766.5z M464.2,763.1
			l14.7-1.9v46.1l-14.7,1.5V763.1z M490.9,759.7l14.7-1.9v46.9l-14.7,1.5V759.7z M517.5,756.2l14.7-1.9V802l-14.7,1.5V756.2z
			 M544.2,752.8l18.2-2.3V799l-18.2,1.8V752.8z M384.9,713.2l14-2.2v44.1l-14,1.8V713.2z M410.9,709.1l14.7-2.3v45l-14.7,1.8V709.1z
			 M437.5,704.8l14.7-2.3v45.9l-14.7,1.8V704.8z M464.2,700.6l14.7-2.3v46.8l-14.7,1.8V700.6z M490.9,696.4l14.7-2.3v47.7l-14.7,1.8
			V696.4z M517.5,692.1l14.7-2.3v48.6l-14.7,1.8V692.1z M544.2,687.9l18.2-2.9v49.6l-18.2,2.3V687.9z"/>
		<path class="st11" d="M647.1,756.7v49.8l-11.5-1.8v-50.3L647.1,756.7z M681,701.9l-11.5-2.9v49.3l11.5,2.3V701.9z M664,697.7
			l-11.5-2.9V745l11.5,2.3V697.7z M635.6,690.6v51.1l11.5,2.3v-50.5L635.6,690.6z M635.6,818.1v49.5l11.5,1.4v-49.1L635.6,818.1z
			 M664,932.8V885l-11.5-1.2v48.2L664,932.8z M652.6,757.8v49.6l11.5,1.8v-49L652.6,757.8z M681,763.5l-11.5-2.3V810l11.5,1.8V763.5
			z M652.6,820.8v48.9L664,871v-48.5L652.6,820.8z M681,873v-47.8l-11.5-1.8v48.3L681,873z M681,934.2v-47.4l-11.5-1.2v47.7
			L681,934.2z M635.6,993.6l11.5,0.5v-47.6l-11.5-0.7V993.6z M652.6,994.2l11.5,0.5v-47.3l-11.5-0.7V994.2z M681,995.4v-46.9
			l-11.5-0.7v47.2L681,995.4z M635.6,881.9v48.7l11.5,0.9v-48.3L635.6,881.9z M652.6,1056.5H664v-46.7l-11.5-0.1V1056.5z
			 M613.2,1009.2l-13.7-0.2v47.5h13.7V1009.2z M613.2,944.4l-13.7-0.8v48.6l13.7,0.5V944.4z M599.5,681.5v53.1l13.7,2.7v-52.3
			L599.5,681.5z M613.2,749.8l-13.7-2.8V799l13.7,2.2V749.8z M613.2,879.5l-13.7-1.5v49.7l13.7,1.1V879.5z M613.2,814.7l-13.7-2.1
			v50.8l13.7,1.6V814.7z M618.7,815.5v50.1l11.5,1.4v-49.7L618.7,815.5z M618.7,944.7v48.2l11.5,0.5v-48L618.7,944.7z M618.7,1056.5
			h11.5v-47.1l-11.5-0.1V1056.5z M618.7,880.1v49.1l11.5,0.9v-48.8L618.7,880.1z M635.6,1056.5h11.5v-46.9l-11.5-0.1V1056.5z
			 M618.7,750.9V802l11.5,1.8v-50.6L618.7,750.9z M618.7,686.3v52l11.5,2.3v-51.4L618.7,686.3z M669.5,1056.5H681V1010l-11.5-0.1
			V1056.5z"/>
		<linearGradient id="SVGID_6_" gradientUnits="userSpaceOnUse" x1="638.5762" y1="672.6661" x2="638.5762" y2="1059.5322">
			<stop  offset="0" style="stop-color:#0686A6"/>
			<stop  offset="3.828741e-02" style="stop-color:#3493AA"/>
			<stop  offset="0.1071" style="stop-color:#59AAAF"/>
			<stop  offset="0.1744" style="stop-color:#70BBB3"/>
			<stop  offset="0.239" style="stop-color:#7DC7B5"/>
			<stop  offset="0.2976" style="stop-color:#81CCB7"/>
			<stop  offset="0.4243" style="stop-color:#79C3B5"/>
			<stop  offset="0.6279" style="stop-color:#61AFB1"/>
			<stop  offset="0.8815" style="stop-color:#3493AA"/>
			<stop  offset="1" style="stop-color:#0686A6"/>
		</linearGradient>
		<path class="st17" d="M669.5,1056.4v-43.3l8.1,0.1v43.2H669.5z M652.6,1056.4v-43.5l8.1,0.1v43.4H652.6z M635.6,1056.4v-43.7
			l8.1,0.1v43.6H635.6z M618.7,1056.4v-43.9l8.1,0.1v43.8H618.7z M599.5,1056.4v-44.1l10.3,0.1v44H599.5z M669.5,994.8V951l8.1,0.5
			v43.6L669.5,994.8z M652.6,994.2V950l8.1,0.5v44L652.6,994.2z M635.6,993.5V949l8.1,0.5v44.3L635.6,993.5z M618.7,992.8V948
			l8.1,0.5v44.6L618.7,992.8z M599.5,992.1v-45.2l10.3,0.6v45L599.5,992.1z M669.5,933.3V889l8.1,0.9v44.1L669.5,933.3z
			 M652.6,931.9v-44.8l8.1,0.9v44.5L652.6,931.9z M635.6,930.6v-45.3l8.1,0.9v45L635.6,930.6z M618.7,929.3v-45.7l8.1,0.9v45.5
			L618.7,929.3z M599.5,927.7v-46.3l10.3,1.1v46L599.5,927.7z M669.5,871.7v-44.8l8.1,1.3v44.5L669.5,871.7z M652.6,869.7v-45.4
			l8.1,1.3v45.1L652.6,869.7z M635.6,867.7v-46l8.1,1.3v45.7L635.6,867.7z M618.7,865.7V819l8.1,1.3v46.4L618.7,865.7z M599.5,863.4
			V816l10.3,1.6v47L599.5,863.4z M669.5,810.1v-45.3l8.1,1.6v44.9L669.5,810.1z M652.6,807.4v-46.1l8.1,1.6v45.7L652.6,807.4z
			 M635.6,804.8v-46.8l8.1,1.6V806L635.6,804.8z M618.7,802.1v-47.6l8.1,1.6v47.2L618.7,802.1z M599.5,799.1v-48.4l10.3,2.1v48
			L599.5,799.1z M669.5,748.5v-45.8l8.1,2v45.4L669.5,748.5z M652.6,745.2v-46.7l8.1,2v46.3L652.6,745.2z M635.6,741.8v-47.6l8.1,2
			v47.2L635.6,741.8z M618.7,738.5V690l8.1,2v48.1L618.7,738.5z M599.5,734.7v-49.5l10.3,2.6v49L599.5,734.7z"/>
		<polygon class="st13" points="429.9,559.4 562.4,513.9 628.9,554.5 626,556.8 562.4,519.1 433.6,561 		"/>
		<polygon class="st13" points="398.9,614.7 572.6,570.4 659.9,615.1 656,616.3 572.6,575.1 403.8,616.3 		"/>
		<polygon class="st13" points="360.1,691.5 585.5,650.4 698.7,684.6 693.7,687.1 585.3,656.4 366.4,693.2 		"/>
	</g>
	<g>
		<g>
			<rect x="866.8" y="40.4" class="st1" width="2.1" height="76.3"/>
			<rect x="892.3" y="2.8" class="st1" width="2.2" height="113.9"/>
			<polygon class="st1" points="854.6,113.5 854.6,149.3 882.4,141.5 882.4,100 			"/>
			<polygon class="st2" points="882.4,100 914.7,127.9 914.7,151.9 882.4,141.5 			"/>
		</g>
		<polygon class="st4" points="815.9,305.1 815.9,159.7 928.4,112.3 928.4,265.1 		"/>
		<polygon class="st3" points="928.4,112.3 1007.3,183.7 1007.3,311.3 928.4,265.1 		"/>
		<path class="st3" d="M850.7,171.6v121.1l-20.3,7.2V179.8L850.7,171.6z M887.8,156.3V280l20.3-7.2V148.1L887.8,156.3z M859.1,166.9
			v123l20.3-7.1v-124L859.1,166.9z"/>
		<linearGradient id="SVGID_7_" gradientUnits="userSpaceOnUse" x1="821.6638" y1="915.0054" x2="887.0204" y2="7.696">
			<stop  offset="0" style="stop-color:#2EBCB0"/>
			<stop  offset="5.634495e-02" style="stop-color:#67C6B6"/>
			<stop  offset="0.1204" style="stop-color:#8BCFBC"/>
			<stop  offset="0.183" style="stop-color:#A2D7C0"/>
			<stop  offset="0.2431" style="stop-color:#B0DCC3"/>
			<stop  offset="0.2976" style="stop-color:#B4DDC4"/>
			<stop  offset="0.4126" style="stop-color:#ABDAC2"/>
			<stop  offset="0.5973" style="stop-color:#93D2BD"/>
			<stop  offset="0.8273" style="stop-color:#67C6B6"/>
			<stop  offset="1" style="stop-color:#2EBCB0"/>
		</linearGradient>
		<path class="st18" d="M834.3,182.4l16.4-6.7v116.9l-16.4,5.8V182.4z M863,169.5l16.4-6.6v119.7l-16.4,5.8V169.5z M891.7,158.9
			l16.4-6.6v120.5l-16.4,5.8V158.9z"/>
		<path class="st11" d="M995.9,196v123.1l-14.1-11.9V183.1L995.9,196z M942.1,146.3v127.8l14.1,11.9V159.2L942.1,146.3z M962,163.6
			v127.1l14.1,11.8V176.5L962,163.6z"/>
		<linearGradient id="SVGID_8_" gradientUnits="userSpaceOnUse" x1="967.0806" y1="960.0795" x2="967.0806" y2="77.3863">
			<stop  offset="0" style="stop-color:#0686A6"/>
			<stop  offset="3.828741e-02" style="stop-color:#3493AA"/>
			<stop  offset="0.1071" style="stop-color:#59AAAF"/>
			<stop  offset="0.1744" style="stop-color:#70BBB3"/>
			<stop  offset="0.239" style="stop-color:#7DC7B5"/>
			<stop  offset="0.2976" style="stop-color:#81CCB7"/>
			<stop  offset="0.4243" style="stop-color:#79C3B5"/>
			<stop  offset="0.6279" style="stop-color:#61AFB1"/>
			<stop  offset="0.8815" style="stop-color:#3493AA"/>
			<stop  offset="1" style="stop-color:#0686A6"/>
		</linearGradient>
		<path class="st19" d="M981.9,306.3V187.5l10.2,9.4V315L981.9,306.3z M962,289.8V168l10.2,9.3v121L962,289.8z M942.1,273.2V150.7
			l10.2,9.3v121.7L942.1,273.2z"/>
		<polygon class="st4" points="765.6,323 928.4,265.1 928.4,1078.1 765.6,1078.1 		"/>
		<polygon class="st3" points="928.4,265.1 1044.3,333 1044.3,1078.1 928.4,1078.1 		"/>
		<polygon class="st5" points="765.6,323 765.6,211.7 797.5,311.7 		"/>
		<polygon class="st5" points="928.4,265.1 928.4,152.2 895.5,276.8 		"/>
		<polygon class="st6" points="928.4,152.2 928.4,265.1 955.8,281.2 		"/>
		<polygon class="st6" points="1044.3,333 1044.3,230.6 1024,321.1 		"/>
		<path class="st3" d="M781.5,348.2l21.5-6.7v736.1h-21.5V348.2z M816.7,1077.6h21.5V330.3l-21.5,6.7V1077.6z M851.9,1077.6h21.5
			V319.2l-21.5,6.7V1077.6z M887.1,1077.6h21.5V308l-21.5,6.7V1077.6z"/>
		<linearGradient id="SVGID_9_" gradientUnits="userSpaceOnUse" x1="831.2112" y1="934.5156" x2="902.4619" y2="-54.6177">
			<stop  offset="0" style="stop-color:#2EBCB0"/>
			<stop  offset="5.634495e-02" style="stop-color:#67C6B6"/>
			<stop  offset="0.1204" style="stop-color:#8BCFBC"/>
			<stop  offset="0.183" style="stop-color:#A2D7C0"/>
			<stop  offset="0.2431" style="stop-color:#B0DCC3"/>
			<stop  offset="0.2976" style="stop-color:#B4DDC4"/>
			<stop  offset="0.4126" style="stop-color:#ABDAC2"/>
			<stop  offset="0.5973" style="stop-color:#93D2BD"/>
			<stop  offset="0.8273" style="stop-color:#67C6B6"/>
			<stop  offset="1" style="stop-color:#2EBCB0"/>
		</linearGradient>
		<path class="st20" d="M891,1077.6V318.1l17.6-5.5v765H891z M855.8,1077.6V329.3l17.6-5.5v753.8H855.8z M820.6,1077.6V340.4
			l17.6-5.5v742.6H820.6z M785.4,1077.6V351.6l17.6-5.5v731.5H785.4z"/>
		<g>
			<polygon class="st11" points="1030,355.3 1015.4,346.7 1015.4,1077.6 1030,1077.6 			"/>
			<polygon class="st11" points="1006.1,342.7 991.5,334.7 991.5,1077.6 1006.1,1077.6 			"/>
			<polygon class="st11" points="982.2,330.3 967.6,321.6 967.6,1077.6 982.2,1077.6 			"/>
			<polygon class="st11" points="958.3,317.2 943.7,308 943.7,1077.6 958.3,1077.6 			"/>
		</g>
		<linearGradient id="SVGID_10_" gradientUnits="userSpaceOnUse" x1="984.9305" y1="994.5525" x2="984.9305" y2="23.2596">
			<stop  offset="0" style="stop-color:#0686A6"/>
			<stop  offset="3.828741e-02" style="stop-color:#3493AA"/>
			<stop  offset="0.1071" style="stop-color:#59AAAF"/>
			<stop  offset="0.1744" style="stop-color:#70BBB3"/>
			<stop  offset="0.239" style="stop-color:#7DC7B5"/>
			<stop  offset="0.2976" style="stop-color:#81CCB7"/>
			<stop  offset="0.4243" style="stop-color:#79C3B5"/>
			<stop  offset="0.6279" style="stop-color:#61AFB1"/>
			<stop  offset="0.8815" style="stop-color:#3493AA"/>
			<stop  offset="1" style="stop-color:#0686A6"/>
		</linearGradient>
		<path class="st21" d="M1015.4,1077.6V352l10.7,6.3v719.2H1015.4z M1002.2,1077.6V345.8l-10.7-5.9v737.6H1002.2z M978.3,1077.6
			V333.3l-10.7-6.4v750.6H978.3z M954.5,1077.6V320.2l-10.7-6.7v764.1H954.5z"/>
	</g>
	<g>
		<g>
			<rect x="741.8" y="616.6" class="st1" width="2.1" height="41"/>
			<rect x="767.4" y="596.4" class="st1" width="2.2" height="61.2"/>
			<polygon class="st1" points="729.6,655.9 729.6,670.9 757.5,670.9 757.5,644.2 			"/>
			<polygon class="st2" points="757.5,644.2 789.7,657.6 789.7,670.9 757.5,670.9 			"/>
		</g>
		<g>
			<rect x="862" y="627.1" class="st1" width="1.7" height="41"/>
			<rect x="882.8" y="606.9" class="st1" width="1.8" height="61.2"/>
			<polygon class="st1" points="852,666.4 852,681.5 874.7,681.5 874.7,654.8 			"/>
			<polygon class="st2" points="874.7,654.8 901,668.1 901,681.5 874.7,681.5 			"/>
		</g>
		<polygon class="st8" points="688.8,698.7 803.1,664.6 803.1,1077.6 688.8,1077.6 		"/>
		<polygon class="st7" points="803.1,664.6 935.7,718.5 935.7,1077.6 803.1,1077.6 		"/>
		<polygon class="st5" points="675.2,682.6 808.8,641.3 808.8,664.6 675.2,702.8 		"/>
		<polygon class="st6" points="808.8,641.3 944.3,696.5 944.3,717.4 808.8,664.6 		"/>
		<polygon class="st13" points="675.2,702.8 808.8,664.6 944.3,717.4 935.7,725.1 935.7,720.7 803.1,671.1 688.8,704 688.8,708.4 		
			"/>
		<path class="st9" d="M763.3,1046h-38.2v-50.4l38.2-2.6V1046z M725.1,976.8l38.2-2.2v-52.9l-38.2,4.7V976.8z M725.1,907.6l38.2-4.5
			v-52.9l-38.2,6.8V907.6z M725.1,838.4l38.2-6.7v-52.9l-38.2,8.9V838.4z M725.1,718.5v50.7l38.2-8.9v-52.8L725.1,718.5z"/>
		<linearGradient id="SVGID_11_" gradientUnits="userSpaceOnUse" x1="745.7792" y1="704.1938" x2="745.7792" y2="1057.4961">
			<stop  offset="0" style="stop-color:#2EBCB0"/>
			<stop  offset="5.634495e-02" style="stop-color:#67C6B6"/>
			<stop  offset="0.1204" style="stop-color:#8BCFBC"/>
			<stop  offset="0.183" style="stop-color:#A2D7C0"/>
			<stop  offset="0.2431" style="stop-color:#B0DCC3"/>
			<stop  offset="0.2976" style="stop-color:#B4DDC4"/>
			<stop  offset="0.4126" style="stop-color:#ABDAC2"/>
			<stop  offset="0.5973" style="stop-color:#93D2BD"/>
			<stop  offset="0.8273" style="stop-color:#67C6B6"/>
			<stop  offset="1" style="stop-color:#2EBCB0"/>
		</linearGradient>
		<path class="st22" d="M728.3,1045.7v-47.2l34.9-2.3v49.6H728.3z M728.3,929.1l34.9-4.3v49.5l-34.9,2V929.1z M728.3,859.8l34.9-6.2
			V903l-34.9,4.1V859.8z M728.3,790.4l34.9-8.2v49.4l-34.9,6.1V790.4z M728.3,721.1l34.9-10.1v49.4l-34.9,8.1V721.1z"/>
		<path class="st11" d="M844.2,1046.8v-51.7l14.6,1.2v50.3L844.2,1046.8z M858.8,976.1v-50.6l-14.6-2.2v51.9L858.8,976.1z
			 M880.7,998.2l-14.6-1.2v49.6l14.6-0.1V998.2z M902.6,1000l-14.6-1.2v47.6l14.6-0.1V1000z M858.8,905.2v-50.9l-14.6-3.2v52
			L858.8,905.2z M880.7,977.6v-48.7l-14.6-2.2v50L880.7,977.6z M887.9,930v48.1l14.6,1v-46.8L887.9,930z M858.8,834.2V783l-14.6-4.2
			V831L858.8,834.2z M866.1,855.9v50.3l14.6,2.1v-49.2L866.1,855.9z M866.1,785.1v50.7l14.6,3.2v-49.7L866.1,785.1z M844.2,758.8
			l14.6,4.3v-51.5l-14.6-5.3V758.8z M866.1,714.3v51.1l14.6,4.3v-50.1L866.1,714.3z M836.9,849.4l-17.7-3.9v54l17.7,2.5V849.4z
			 M836.9,994.5l-17.7-1.5v54l17.7-0.2V994.5z M909.8,979.6l14.8,1v-44.9l-14.8-2.3V979.6z M909.8,1046.1l14.8-0.1v-44.1l-14.8-1.2
			V1046.1z M909.8,912.5l14.8,2.1v-45.7l-14.8-3.3V912.5z M909.8,845.4l14.8,3.3v-46.6l-14.8-4.3V845.4z M909.8,730v48.3l14.8,4.4
			v-47.4L909.8,730z M836.9,922.2l-17.7-2.7v54l17.7,1.2V922.2z M887.9,860.7v48.6l14.6,2.1V864L887.9,860.7z M887.9,722.2v49.7
			l14.6,4.3v-48.8L887.9,722.2z M887.9,791.4v49.1l14.6,3.2v-48.1L887.9,791.4z M836.9,703.8l-17.7-6.4v54l17.7,5.2V703.8z
			 M836.9,776.6l-17.7-5.1v54l17.7,3.9V776.6z"/>
		<linearGradient id="SVGID_12_" gradientUnits="userSpaceOnUse" x1="870.3032" y1="710.9302" x2="870.3032" y2="1051.1149">
			<stop  offset="0" style="stop-color:#0686A6"/>
			<stop  offset="3.828741e-02" style="stop-color:#3493AA"/>
			<stop  offset="0.1071" style="stop-color:#59AAAF"/>
			<stop  offset="0.1744" style="stop-color:#70BBB3"/>
			<stop  offset="0.239" style="stop-color:#7DC7B5"/>
			<stop  offset="0.2976" style="stop-color:#81CCB7"/>
			<stop  offset="0.4243" style="stop-color:#79C3B5"/>
			<stop  offset="0.6279" style="stop-color:#61AFB1"/>
			<stop  offset="0.8815" style="stop-color:#3493AA"/>
			<stop  offset="1" style="stop-color:#0686A6"/>
		</linearGradient>
		<path class="st23" d="M819.2,996.5l14.4,1.2v49.2l-14.4,0.1V996.5z M844.2,998.5l11.3,1v47.2l-11.3,0.1V998.5z M866,1000.4l11.3,1
			v45.1l-11.3,0.1V1000.4z M887.9,1002.2l11.3,1v43.1l-11.3,0.1V1002.2z M909.8,1004.1l11.6,1v41l-11.6,0.1V1004.1z M909.8,979.7
			v-42.8l11.6,1.8v41.8L909.8,979.7z M887.9,978.2v-44.6l11.3,1.7V979L887.9,978.2z M866,976.8v-46.5l11.3,1.7v45.5L866,976.8z
			 M844.2,975.3v-48.4l11.3,1.7v47.4L844.2,975.3z M819.2,973.6v-50.5l14.4,2.2v49.3L819.2,973.6z M909.8,912.7v-43.4l11.6,2.6v42.5
			L909.8,912.7z M887.9,909.6v-45.2l11.3,2.5v44.3L887.9,909.6z M866,906.4v-46.9l11.3,2.5v46L866,906.4z M844.2,903.3v-48.6
			l11.3,2.5v47.7L844.2,903.3z M819.2,899.7v-50.5l14.4,3.2v49.4L819.2,899.7z M909.8,845.7v-44.1l11.6,3.4v43.3L909.8,845.7z
			 M887.9,840.9v-45.6l11.3,3.3v44.8L887.9,840.9z M866,836.1v-47.2l11.3,3.3v46.4L866,836.1z M844.2,831.3v-48.7l11.3,3.3v47.9
			L844.2,831.3z M819.2,825.8v-50.5l14.4,4.2V829L819.2,825.8z M909.8,778.7V734l11.6,4.2v44L909.8,778.7z M887.9,772.3v-46.1
			l11.3,4.1v45.4L887.9,772.3z M866,765.8v-47.5l11.3,4.1v46.8L866,765.8z M844.2,759.3v-48.9l11.3,4.1v48.2L844.2,759.3z
			 M819.2,751.9v-50.4l14.4,5.2v49.5L819.2,751.9z"/>
	</g>
	<g>
		<polygon class="st24" points="682.9,854 682.9,1078.1 837.8,1078.1 837.8,873.4 		"/>
		<polygon class="st25" points="682.9,854 616.1,870.6 616.1,1078.1 682.9,1078.1 		"/>
		<polygon class="st5" points="682.9,854 612.6,871.4 612.6,859.1 682.9,839.1 		"/>
		<polygon class="st6" points="682.9,839.1 682.9,854 842.3,874 842.3,862.9 		"/>
		<path class="st3" d="M726.3,988v-49.5l18.4,1.4v48.7L726.3,988z M744.7,1056v-48.9l-18.4-0.7v49.6H744.7z M798.8,1009.1l-18.4-0.7
			v47.6h18.4V1009.1z M771.8,1008.1l-18.4-0.7v48.6h18.4V1008.1z M753.4,873.8V922l18.4,1.4V876L753.4,873.8z M726.3,919.9l18.4,1.4
			v-48.6l-18.4-2.2V919.9z M771.8,989.7V942l-18.4-1.4V989L771.8,989.7z M717.7,1006.1l-21.3-0.8v50.7h21.3V1006.1z M807.5,1056H826
			v-45.9l-18.4-0.7V1056z M807.5,991.1l18.4,0.7v-45.5l-18.4-1.4V991.1z M807.5,880.3v45.8l18.4,1.4v-45L807.5,880.3z M780.5,877v47
			l18.4,1.4v-46.2L780.5,877z M780.5,942.7V990l18.4,0.7v-46.6L780.5,942.7z M717.7,937.8l-21.3-1.7v50.7l21.3,0.8V937.8z
			 M717.7,869.5l-21.3-2.6v50.7l21.3,1.6V869.5z"/>
		<linearGradient id="SVGID_13_" gradientUnits="userSpaceOnUse" x1="759.6718" y1="867.0726" x2="759.6718" y2="1067.8336">
			<stop  offset="0" style="stop-color:#0686A6"/>
			<stop  offset="3.828741e-02" style="stop-color:#3493AA"/>
			<stop  offset="0.1071" style="stop-color:#59AAAF"/>
			<stop  offset="0.1744" style="stop-color:#70BBB3"/>
			<stop  offset="0.239" style="stop-color:#7DC7B5"/>
			<stop  offset="0.2976" style="stop-color:#81CCB7"/>
			<stop  offset="0.4243" style="stop-color:#79C3B5"/>
			<stop  offset="0.6279" style="stop-color:#61AFB1"/>
			<stop  offset="0.8815" style="stop-color:#3493AA"/>
			<stop  offset="1" style="stop-color:#0686A6"/>
		</linearGradient>
		<path class="st26" d="M807.6,1055.9v-43.5l15.3,0.6v42.9H807.6z M780.5,1055.9v-44.5l15.3,0.6v43.9H780.5z M753.5,1055.9v-45.4
			l15.3,0.6v44.9H753.5z M726.4,1055.9v-46.4l15.3,0.6v45.9H726.4z M696.4,1055.9v-47.5l18.2,0.7v46.9H696.4z M807.6,991v-43.1
			l15.3,1.2v42.5L807.6,991z M780.5,990v-44.2l15.3,1.2v43.5L780.5,990z M753.5,988.9v-45.2l15.3,1.2v44.6L753.5,988.9z
			 M726.4,987.9v-46.3l15.3,1.2v45.7L726.4,987.9z M696.4,986.7v-47.5l18.2,1.4v46.8L696.4,986.7z M807.6,926.1v-42.7l15.3,1.8v42
			L807.6,926.1z M780.5,924v-43.9l15.3,1.8v43.2L780.5,924z M753.5,921.9v-45l15.3,1.8v44.4L753.5,921.9z M726.4,919.9v-46.2
			l15.3,1.8V921L726.4,919.9z M696.4,917.6v-47.5l18.2,2.2V919L696.4,917.6z"/>
		<polygon class="st13" points="612.6,871.4 682.9,854 842.3,874 837.8,876 682.8,857.9 616.1,872.3 		"/>
	</g>
	<g>
		<polygon class="st24" points="1680.3,927.5 1680.3,1078.1 1784.4,1078.1 1784.4,940.5 		"/>
		<polygon class="st25" points="1680.3,927.5 1635.4,938.6 1635.4,1078.1 1680.3,1078.1 		"/>
		<polygon class="st5" points="1680.3,927.5 1633,939.2 1633,930.9 1680.3,917.5 		"/>
		<polygon class="st6" points="1680.3,917.5 1680.3,927.5 1787.4,940.9 1787.4,933.5 		"/>
		<path class="st3" d="M1709.4,1017.5v-33.3l12.3,1v32.8L1709.4,1017.5z M1721.8,1063.3v-32.9l-12.3-0.5v33.3H1721.8z
			 M1758.2,1031.7l-12.3-0.5v32h12.3V1031.7z M1740,1031l-12.3-0.5v32.7h12.3V1031z M1727.6,940.7v32.4l12.3,0.9v-31.9L1727.6,940.7
			z M1709.4,971.7l12.3,0.9V940l-12.3-1.5V971.7z M1740,1018.7v-32l-12.3-1v32.5L1740,1018.7z M1703.6,1029.7l-14.3-0.5v34.1h14.3
			V1029.7z M1764,1063.3h12.4v-30.9l-12.4-0.5V1063.3z M1764,1019.6l12.4,0.5v-30.6l-12.4-1V1019.6z M1764,945.1v30.8l12.4,0.9
			v-30.3L1764,945.1z M1745.8,942.9v31.6l12.3,0.9v-31.1L1745.8,942.9z M1745.8,987.1v31.8l12.3,0.5v-31.3L1745.8,987.1z
			 M1703.6,983.8l-14.3-1.1v34.1l14.3,0.5V983.8z M1703.6,937.9l-14.3-1.7v34.1l14.3,1.1V937.9z"/>
		<linearGradient id="SVGID_14_" gradientUnits="userSpaceOnUse" x1="1731.8478" y1="936.243" x2="1731.8478" y2="1071.1864">
			<stop  offset="0" style="stop-color:#0686A6"/>
			<stop  offset="3.828741e-02" style="stop-color:#3493AA"/>
			<stop  offset="0.1071" style="stop-color:#59AAAF"/>
			<stop  offset="0.1744" style="stop-color:#70BBB3"/>
			<stop  offset="0.239" style="stop-color:#7DC7B5"/>
			<stop  offset="0.2976" style="stop-color:#81CCB7"/>
			<stop  offset="0.4243" style="stop-color:#79C3B5"/>
			<stop  offset="0.6279" style="stop-color:#61AFB1"/>
			<stop  offset="0.8815" style="stop-color:#3493AA"/>
			<stop  offset="1" style="stop-color:#0686A6"/>
		</linearGradient>
		<path class="st27" d="M1764.1,1063.2v-29.2l10.3,0.4v28.8H1764.1z M1745.9,1063.2v-29.9l10.3,0.4v29.5H1745.9z M1727.7,1063.2
			v-30.5l10.3,0.4v30.2H1727.7z M1709.5,1063.2V1032l10.3,0.4v30.8H1709.5z M1689.3,1063.2v-32l12.2,0.4v31.5H1689.3z
			 M1764.1,1019.5v-29l10.3,0.8v28.5L1764.1,1019.5z M1745.9,1018.8v-29.7l10.3,0.8v29.3L1745.9,1018.8z M1727.7,1018.1v-30.4
			l10.3,0.8v30L1727.7,1018.1z M1709.5,1017.4v-31.1l10.3,0.8v30.7L1709.5,1017.4z M1689.3,1016.7v-31.9l12.2,1v31.5L1689.3,1016.7z
			 M1764.1,975.9v-28.7l10.3,1.2v28.2L1764.1,975.9z M1745.9,974.5V945l10.3,1.2v29L1745.9,974.5z M1727.7,973.1v-30.3l10.3,1.2
			v29.8L1727.7,973.1z M1709.5,971.7v-31.1l10.3,1.2v30.6L1709.5,971.7z M1689.3,970.2v-31.9l12.2,1.5v31.4L1689.3,970.2z"/>
		<polygon class="st13" points="1633,939.2 1680.3,927.5 1787.4,940.9 1784.4,942.3 1680.2,930.1 1635.4,939.8 		"/>
	</g>
	<g>
		<polygon class="st7" points="237.8,721 237.8,1078.1 495.2,1078.1 495.2,752.8 		"/>
		<polygon class="st8" points="237.8,721 110.7,748.5 110.7,1078.1 237.8,1078.1 		"/>
		<polygon class="st5" points="237.8,721 104.8,749.5 104.8,738.5 237.8,706.9 		"/>
		<polygon class="st6" points="237.8,706.9 237.8,721 502.6,755.3 502.6,744 		"/>
		<path class="st11" d="M352.9,809.7v41.6l-21.2-1.5v-42L352.9,809.7z M415.5,763.9l-21.2-2.4v41.2l21.2,1.9V763.9z M384.2,760.4
			l-21.2-2.4v42l21.2,1.9V760.4z M331.7,754.5v42.7l21.2,1.9v-42.2L331.7,754.5z M446.9,767.5l-21.2-2.4v40.5l21.2,1.9V767.5z
			 M446.9,1009.6v-38.9l-21.2-0.6v39.1L446.9,1009.6z M446.9,959v-39.2l-21.2-1v39.4L446.9,959z M446.9,857.9v-39.7l-21.2-1.9v40.1
			L446.9,857.9z M331.7,861v41.3l21.2,1.1v-41L331.7,861z M446.9,908.5V869l-21.2-1.5v39.8L446.9,908.5z M384.2,956.8v-40l-21.2-1
			V956L384.2,956.8z M363.1,810.6V852l21.2,1.5v-41L363.1,810.6z M415.5,815.4l-21.2-1.9v40.7l21.2,1.5V815.4z M363.1,863.2V904
			l21.2,1.1v-40.5L363.1,863.2z M415.5,906.8v-39.9l-21.2-1.5v40.3L415.5,906.8z M446.9,1060.1v-38.7l-21.2-0.1v38.8H446.9z
			 M415.5,957.9v-39.6l-21.2-1v39.8L415.5,957.9z M331.7,1007.5l21.2,0.4v-39.8l-21.2-0.6V1007.5z M363.1,1008.1l21.2,0.4V969
			l-21.2-0.6V1008.1z M415.5,1009v-39.2l-21.2-0.6v39.4L415.5,1009z M331.7,914.3v40.6l21.2,0.8v-40.4L331.7,914.3z M363.1,1060.1
			h21.2v-39l-21.2-0.1V1060.1z M290.3,1020.6l-25.3-0.1v39.6h25.3V1020.6z M457,909l20.4,1.1v-38.9l-20.4-1.4V909z M290.3,966.4
			l-25.3-0.7v40.6l25.3,0.5V966.4z M457,959.4l20.4,0.7v-38.8l-20.4-1V959.4z M457,1009.7l20.4,0.4v-38.6l-20.4-0.5V1009.7z
			 M457,1060.1h20.4v-38.5l-20.4-0.1V1060.1z M265,746.9v44.3l25.3,2.3v-43.7L265,746.9z M290.3,803.9l-25.3-2.3V845l25.3,1.8V803.9
			z M290.3,912.3L265,911v41.5l25.3,0.9V912.3z M290.3,858.1l-25.3-1.8v42.4l25.3,1.4V858.1z M300.4,858.8v41.8l21.2,1.1v-41.5
			L300.4,858.8z M300.4,966.7v40.2l21.2,0.4v-40L300.4,966.7z M300.4,1060.1h21.2v-39.3l-21.2-0.1V1060.1z M300.4,912.8v41l21.2,0.8
			v-40.8L300.4,912.8z M331.7,1060.1h21.2v-39.2l-21.2-0.1V1060.1z M300.4,804.9v42.7l21.2,1.5v-42.2L300.4,804.9z M457,808.3
			l20.4,1.8v-39.2l-20.4-2.3V808.3z M300.4,750.9v43.5l21.2,1.9v-42.9L300.4,750.9z M457,858.7l20.4,1.5V821l-20.4-1.9V858.7z
			 M394.4,1060.1h21.2v-38.8l-21.2-0.1V1060.1z"/>
		<linearGradient id="SVGID_15_" gradientUnits="userSpaceOnUse" x1="369.5768" y1="745.7364" x2="369.5768" y2="1064.6876">
			<stop  offset="0" style="stop-color:#0686A6"/>
			<stop  offset="3.828741e-02" style="stop-color:#3493AA"/>
			<stop  offset="0.1071" style="stop-color:#59AAAF"/>
			<stop  offset="0.1744" style="stop-color:#70BBB3"/>
			<stop  offset="0.239" style="stop-color:#7DC7B5"/>
			<stop  offset="0.2976" style="stop-color:#81CCB7"/>
			<stop  offset="0.4243" style="stop-color:#79C3B5"/>
			<stop  offset="0.6279" style="stop-color:#61AFB1"/>
			<stop  offset="0.8815" style="stop-color:#3493AA"/>
			<stop  offset="1" style="stop-color:#0686A6"/>
		</linearGradient>
		<path class="st28" d="M457,1060.3v-35.4l17.2,0.1v35.3H457z M425.7,1060.3v-35.5l18,0.1v35.5H425.7z M394.4,1060.3v-35.7l18,0.1
			v35.6H394.4z M363.1,1060.3v-35.9l18,0.1v35.8H363.1z M331.7,1060.3v-36l18,0.1v35.9H331.7z M300.4,1060.3v-36.2l18,0.1v36.1
			H300.4z M265,1060.3v-36.4l22.1,0.1v36.3H265z M457,1010v-35.6l17.2,0.5v35.4L457,1010z M425.7,1009.4v-35.9l18,0.5v35.7
			L425.7,1009.4z M394.4,1008.8v-36.2l18,0.5v36L394.4,1008.8z M363.1,1008.3v-36.4l18,0.5v36.3L363.1,1008.3z M331.7,1007.7V971
			l18,0.5v36.6L331.7,1007.7z M300.4,1007.2v-37l18,0.5v36.8L300.4,1007.2z M265,1006.5v-37.3l22.1,0.6v37.1L265,1006.5z M457,959.6
			v-35.8l17.2,0.8v35.6L457,959.6z M425.7,958.5v-36.2l18,0.9v36L425.7,958.5z M394.4,957.4v-36.6l18,0.9V958L394.4,957.4z
			 M363.1,956.3v-37l18,0.9v36.8L363.1,956.3z M331.7,955.2v-37.4l18,0.9v37.2L331.7,955.2z M300.4,954.1v-37.8l18,0.9v37.6
			L300.4,954.1z M265,952.8v-38.3l22.1,1.1v38L265,952.8z M457,909.3v-36l17.2,1.2v35.7L457,909.3z M425.7,907.6v-36.5l18,1.3v36.2
			L425.7,907.6z M394.4,906v-37l18,1.3v36.7L394.4,906z M363.1,904.3v-37.6l18,1.3v37.3L363.1,904.3z M331.7,902.6v-38.1l18,1.3
			v37.8L331.7,902.6z M300.4,900.9v-38.6l18,1.3v38.3L300.4,900.9z M265,899.1v-39.2l22.1,1.5v38.8L265,899.1z M457,859v-36.2
			l17.2,1.6v35.9L457,859z M425.7,856.7v-36.9l18,1.6V858L425.7,856.7z M394.4,854.5V817l18,1.6v37.1L394.4,854.5z M363.1,852.3
			v-38.1l18,1.6v37.8L363.1,852.3z M331.7,850.1v-38.8l18,1.6v38.4L331.7,850.1z M300.4,847.8v-39.4l18,1.6v39L300.4,847.8z
			 M265,845.3v-40.1l22.1,2v39.7L265,845.3z M457,808.6v-36.4l17.2,1.9v36L457,808.6z M425.7,805.9v-37.2l18,2v36.7L425.7,805.9z
			 M394.4,803.1v-37.9l18,2v37.5L394.4,803.1z M363.1,800.3v-38.7l18,2v38.2L363.1,800.3z M331.7,797.5v-39.4l18,2v39L331.7,797.5z
			 M300.4,794.7v-40.2l18,2v39.7L300.4,794.7z M265,791.6v-41l22.1,2.5v40.5L265,791.6z"/>
		<path class="st9" d="M178.9,807.7v42l-13.5,1.5v-41.6L178.9,807.7z M125.7,804.6l13.5-1.9v-41.2l-13.5,2.4V804.6z M145.6,801.8
			l13.5-1.9v-42l-13.5,2.4V801.8z M165.5,756.8V799l13.5-1.9v-42.7L165.5,756.8z M165.5,862.5v41l13.5-1.1V861L165.5,862.5z
			 M159,956v-40.2l-13.5,1v40L159,956z M145.6,812.5v41L159,852v-41.4L145.6,812.5z M125.7,855.7l13.5-1.5v-40.7l-13.5,1.9V855.7z
			 M145.6,864.7v40.5L159,904v-40.8L145.6,864.7z M139.1,905.7v-40.3l-13.5,1.5v39.9L139.1,905.7z M139.1,957.1v-39.8l-13.5,1v39.6
			L139.1,957.1z M178.9,967.5l-13.5,0.6v39.8l13.5-0.4V967.5z M159,968.4l-13.5,0.6v39.5l13.5-0.4V968.4z M139.1,1008.6v-39.4
			l-13.5,0.6v39.2L139.1,1008.6z M165.5,915.3v40.4l13.5-0.8v-40.6L165.5,915.3z M159,1021l-13.5,0.1v39H159V1021z M205.3,1060.1
			h16.1v-39.6l-16.1,0.1V1060.1z M205.3,1006.8l16.1-0.5v-40.6l-16.1,0.7V1006.8z M205.3,749.8v43.7l16.1-2.3v-44.3L205.3,749.8z
			 M205.3,846.8l16.1-1.8v-43.4l-16.1,2.3V846.8z M205.3,953.4l16.1-0.9V911l-16.1,1.2V953.4z M205.3,900.1l16.1-1.4v-42.4
			l-16.1,1.8V900.1z M185.4,860.3v41.5l13.5-1.1v-41.8L185.4,860.3z M185.4,967.3v40l13.5-0.4v-40.2L185.4,967.3z M198.8,1020.7
			l-13.5,0.1v39.3h13.5V1020.7z M185.4,913.8v40.8l13.5-0.8v-41L185.4,913.8z M178.9,1020.8l-13.5,0.1v39.2h13.5V1020.8z
			 M185.4,806.8V849l13.5-1.5v-42.7L185.4,806.8z M185.4,753.3v42.9l13.5-1.9v-43.5L185.4,753.3z M139.1,1021.1l-13.5,0.1v38.8h13.5
			V1021.1z"/>
		<linearGradient id="SVGID_16_" gradientUnits="userSpaceOnUse" x1="174.9791" y1="744.931" x2="174.9791" y2="1065.7721">
			<stop  offset="0" style="stop-color:#2EBCB0"/>
			<stop  offset="5.634495e-02" style="stop-color:#67C6B6"/>
			<stop  offset="0.1204" style="stop-color:#8BCFBC"/>
			<stop  offset="0.183" style="stop-color:#A2D7C0"/>
			<stop  offset="0.2431" style="stop-color:#B0DCC3"/>
			<stop  offset="0.2976" style="stop-color:#B4DDC4"/>
			<stop  offset="0.4126" style="stop-color:#ABDAC2"/>
			<stop  offset="0.5973" style="stop-color:#93D2BD"/>
			<stop  offset="0.8273" style="stop-color:#67C6B6"/>
			<stop  offset="1" style="stop-color:#2EBCB0"/>
		</linearGradient>
		<path class="st29" d="M208.3,1059.9v-36.3l12.9-0.1v36.4H208.3z M188.5,1059.9v-36.1l10.2-0.1v36.2H188.5z M168.6,1059.9v-36
			l10.2-0.1v36H168.6z M148.7,1059.9v-35.8l10.2-0.1v35.9H148.7z M128.8,1059.9v-35.6l10.2-0.1v35.7H128.8z M128.8,972.7l10.2-0.4
			v36.1l-10.2,0.3V972.7z M148.7,971.9l10.2-0.4v36.4l-10.2,0.3V971.9z M168.6,971.1l10.2-0.4v36.7l-10.2,0.3V971.1z M188.5,970.2
			l10.2-0.4v37l-10.2,0.3V970.2z M208.3,969.4l12.9-0.5v37.3l-12.9,0.4V969.4z M128.8,921.2l10.2-0.8V957l-10.2,0.6V921.2z
			 M148.7,919.7l10.2-0.8v37l-10.2,0.6V919.7z M168.6,918.2l10.2-0.8v37.4l-10.2,0.6V918.2z M188.5,916.7l10.2-0.8v37.8l-10.2,0.6
			V916.7z M208.3,915.2l12.9-1v38.2l-12.9,0.7V915.2z M128.8,869.7l10.2-1.1v37l-10.2,0.9V869.7z M148.7,867.5l10.2-1.1v37.5
			l-10.2,0.9V867.5z M168.6,865.3l10.2-1.1v38.1l-10.2,0.9V865.3z M188.5,863.1l10.2-1.1v38.6l-10.2,0.9V863.1z M208.3,861l12.9-1.4
			v39.2l-12.9,1.1V861z M128.8,818.2l10.2-1.5v37.5l-10.2,1.1V818.2z M148.7,815.3l10.2-1.5v38.1l-10.2,1.1V815.3z M168.6,812.5
			l10.2-1.5v38.7l-10.2,1.1V812.5z M188.5,809.6l10.2-1.5v39.4l-10.2,1.1V809.6z M208.3,806.7l12.9-1.8V845l-12.9,1.4V806.7z
			 M128.8,766.7l10.2-1.8v37.9l-10.2,1.4V766.7z M148.7,763.1l10.2-1.8V800l-10.2,1.4V763.1z M168.6,759.6l10.2-1.8v39.4l-10.2,1.4
			V759.6z M188.5,756.1l10.2-1.8v40.1l-10.2,1.4V756.1z M208.3,752.5l12.9-2.3v41l-12.9,1.8V752.5z"/>
		<polygon class="st13" points="104.8,749.5 237.8,721 502.6,755.3 495.2,757.4 237.8,726 110.9,751.1 		"/>
	</g>
	<g>
		<g>
			<rect x="1124.7" y="387.9" class="st1" width="2.1" height="76.9"/>
			<rect x="1150.3" y="371.9" class="st1" width="2.2" height="92.9"/>
			<polygon class="st1" points="1112.5,463.5 1112.5,494.5 1140.4,494.5 1140.4,454.3 			"/>
			<polygon class="st2" points="1140.4,454.3 1172.6,474.4 1172.6,494.5 1140.4,494.5 			"/>
		</g>
		<linearGradient id="SVGID_17_" gradientUnits="userSpaceOnUse" x1="1007.4969" y1="775.9455" x2="1172.7859" y2="775.9455">
			<stop  offset="0" style="stop-color:#2EBCB0"/>
			<stop  offset="5.634495e-02" style="stop-color:#67C6B6"/>
			<stop  offset="0.1204" style="stop-color:#8BCFBC"/>
			<stop  offset="0.183" style="stop-color:#A2D7C0"/>
			<stop  offset="0.2431" style="stop-color:#B0DCC3"/>
			<stop  offset="0.2976" style="stop-color:#B4DDC4"/>
			<stop  offset="0.4126" style="stop-color:#ABDAC2"/>
			<stop  offset="0.5973" style="stop-color:#93D2BD"/>
			<stop  offset="0.8273" style="stop-color:#67C6B6"/>
			<stop  offset="1" style="stop-color:#2EBCB0"/>
		</linearGradient>
		<polygon class="st30" points="1007.5,520.8 1172.8,473.8 1172.8,1078.1 1007.5,1078.1 		"/>
		<g>
			<polygon class="st5" points="1007.5,511.2 991.5,516.3 991.5,1078.1 1007.5,1078.1 			"/>
			<polygon class="st5" points="1037.7,502.6 1021.7,507.7 1021.7,1078.1 1037.7,1078.1 			"/>
			<polygon class="st5" points="1067.9,494 1051.9,499.1 1051.9,1078.1 1067.9,1078.1 			"/>
			<polygon class="st5" points="1098.1,485.4 1082.2,490.6 1082.2,1078.1 1098.1,1078.1 			"/>
			<polygon class="st5" points="1128.3,476.9 1112.4,482 1112.4,1078.1 1128.3,1078.1 			"/>
			<polygon class="st5" points="1158.6,468.3 1142.6,473.4 1142.6,1078.1 1158.6,1078.1 			"/>
			<polygon class="st5" points="1188.8,459.7 1172.8,464.8 1172.8,1078.1 1188.8,1078.1 			"/>
		</g>
		<polygon class="st6" points="1188.8,459.7 1188.8,1078.1 1249.4,1078.1 1249.4,503.8 		"/>
		<path class="st6" d="M1007.5,511.2l13.9,5.7l-13.9,3.9V511.2z M1037.7,512.2l14-4l-14-5.6V512.2z M1067.9,503.6l14.1-4l-14.1-5.6
			V503.6z M1098.1,495.1l14.2-4l-14.2-5.5V495.1z M1128.2,486.5l14.3-4.1l-14.3-5.5V486.5z M1158.4,477.9l14.4-4.1l-14.4-5.4V477.9z
			"/>
		<path class="st6" d="M1010.2,520v558h-2.7V520.8L1010.2,520z M1037.7,512.2v565.9h2.7V511.4L1037.7,512.2z M1067.9,503.6v574.4
			h2.8V502.8L1067.9,503.6z M1098.1,495.1v583h2.8V494.3L1098.1,495.1z M1128.2,486.5v591.6h2.8V485.7L1128.2,486.5z M1158.4,477.9
			v600.2h2.9v-601L1158.4,477.9z"/>
	</g>
	<g>
		<g>
			<rect x="1350.3" y="448.5" class="st1" width="2.1" height="76.3"/>
			<rect x="1375.8" y="410.9" class="st1" width="2.2" height="113.9"/>
			<polygon class="st1" points="1338.1,521.6 1338.1,557.4 1365.9,549.6 1365.9,508.1 			"/>
			<polygon class="st2" points="1365.9,508.1 1398.2,536 1398.2,560 1365.9,549.6 			"/>
		</g>
		<polygon class="st4" points="1447.8,511.1 1447.8,608.9 1318.4,608.9 1318.4,554.7 		"/>
		<polygon class="st3" points="1447.8,511.1 1511.8,551.2 1511.8,608.9 1447.8,608.9 		"/>
		<polygon class="st6" points="1447.8,511.1 1514.7,552 1514.7,542.7 1447.8,499.3 		"/>
		<polygon class="st5" points="1447.8,499.3 1447.8,511.1 1314.7,556.8 1314.7,547.3 		"/>
		<polygon class="st4" points="1458.2,567.9 1458.2,689.6 1288.5,689.6 1288.5,609.8 		"/>
		<polygon class="st3" points="1458.2,567.9 1542,611.8 1542,689.6 1458.2,689.6 		"/>
		<polygon class="st6" points="1458.2,567.9 1545.9,612.8 1545.9,600.7 1458.2,552.5 		"/>
		<polygon class="st5" points="1458.2,552.5 1458.2,567.9 1283.6,612.5 1283.6,600 		"/>
		<path class="st9" d="M1301.5,619.6l15.2-3.5v38.9l-15.2,3.2V619.6z M1327,653.5l15.2-3.2v-40.5l-15.2,3.5V653.5z M1352.5,649
			l15.2-3.1v-42.2l-15.2,3.4V649z M1378,644.4l15.2-3.1v-43.9l-15.2,3.3V644.4z M1403.5,639.8l15.2-3v-45.5l-15.2,3.3V639.8z
			 M1429,635.2l15.2-3V585l-15.2,3.2V635.2z"/>
		<linearGradient id="SVGID_18_" gradientUnits="userSpaceOnUse" x1="1374.5393" y1="592.824" x2="1374.5393" y2="647.1829">
			<stop  offset="0" style="stop-color:#2EBCB0"/>
			<stop  offset="5.634495e-02" style="stop-color:#67C6B6"/>
			<stop  offset="0.1204" style="stop-color:#8BCFBC"/>
			<stop  offset="0.183" style="stop-color:#A2D7C0"/>
			<stop  offset="0.2431" style="stop-color:#B0DCC3"/>
			<stop  offset="0.2976" style="stop-color:#B4DDC4"/>
			<stop  offset="0.4126" style="stop-color:#ABDAC2"/>
			<stop  offset="0.5973" style="stop-color:#93D2BD"/>
			<stop  offset="0.8273" style="stop-color:#67C6B6"/>
			<stop  offset="1" style="stop-color:#2EBCB0"/>
		</linearGradient>
		<path class="st31" d="M1304.9,622.4l11.8-2.7V655l-11.8,2.5V622.4z M1330.4,616.1l11.8-2.7v37l-11.8,2.5V616.1z M1355.9,609.8
			l11.8-2.6v38.7l-11.8,2.4V609.8z M1381.4,603.6l11.8-2.6v40.4l-11.8,2.4V603.6z M1406.9,597.3l11.8-2.5v42.1l-11.8,2.4V597.3z
			 M1432.4,591l11.8-2.5v43.8l-11.8,2.3V591z"/>
		<path class="st11" d="M1535.2,647.4l-8.9-3.5v-30.8l8.9,4.4V647.4z M1520.3,610l-8.9-4.5v33.7l8.9,3.4V610z M1505.5,602.5
			l-8.9-4.6v36.7l8.9,3.4V602.5z M1490.7,595.1l-8.9-4.7V630l8.9,3.3V595.1z M1475.8,587.6l-8.9-4.9v42.6l8.9,3.3V587.6z"/>
		<linearGradient id="SVGID_19_" gradientUnits="userSpaceOnUse" x1="1499.3761" y1="599.2482" x2="1499.3761" y2="639.2889">
			<stop  offset="0" style="stop-color:#0686A6"/>
			<stop  offset="3.828741e-02" style="stop-color:#3493AA"/>
			<stop  offset="0.1071" style="stop-color:#59AAAF"/>
			<stop  offset="0.1744" style="stop-color:#70BBB3"/>
			<stop  offset="0.239" style="stop-color:#7DC7B5"/>
			<stop  offset="0.2976" style="stop-color:#81CCB7"/>
			<stop  offset="0.4243" style="stop-color:#79C3B5"/>
			<stop  offset="0.6279" style="stop-color:#61AFB1"/>
			<stop  offset="0.8815" style="stop-color:#3493AA"/>
			<stop  offset="1" style="stop-color:#0686A6"/>
		</linearGradient>
		<path class="st32" d="M1526.3,643.9V617l5.5,2.7v26.4L1526.3,643.9z M1511.4,639.3v-29.8l5.5,2.8v29.2L1511.4,639.3z
			 M1496.6,634.6v-32.7l5.5,2.9v32L1496.6,634.6z M1481.8,629.9v-35.7l5.5,2.9V632L1481.8,629.9z M1466.9,625.3v-38.6l5.5,3v37.6
			L1466.9,625.3z"/>
		<polygon class="st4" points="1471.1,648.4 1471.1,1078.1 1250.9,1078.1 1250.9,686.7 		"/>
		<polygon class="st3" points="1471.1,648.4 1579.8,681.5 1579.8,1078.1 1471.1,1078.1 		"/>
		<polygon class="st6" points="1471.1,648.4 1584.9,682.7 1584.9,669.4 1471.1,631.5 		"/>
		<polygon class="st5" points="1471.1,631.5 1471.1,648.4 1244.5,689.6 1244.5,676 		"/>
		<path class="st9" d="M1390.7,752.8v50.6l-18.1,1.8v-50L1390.7,752.8z M1319,749l18.1-2.3v-49.6l-18.1,2.9V749z M1345.8,745.7
			l18.1-2.3v-50.5l-18.1,2.9V745.7z M1372.6,691.5v50.8l18.1-2.3v-51.4L1372.6,691.5z M1292.2,752.4l18.1-2.3v-48.7l-18.1,2.9V752.4
			z M1310.4,995.2v-47.1l-18.1,0.7v46.8L1310.4,995.2z M1310.4,933.9v-47.5l-18.1,1.2v47.1L1310.4,933.9z M1310.4,811.4v-48.3
			l-18.1,2.3v47.8L1310.4,811.4z M1372.6,818.6V868l18.1-1.4v-49.7L1372.6,818.6z M1310.4,872.6v-47.9l-18.1,1.8V874L1310.4,872.6z
			 M1363.9,931.2v-48.4l-18.1,1.2v48.1L1363.9,931.2z M1345.8,758.5v49.3l18.1-1.8v-49.8L1345.8,758.5z M1319,810.5l18.1-1.8v-49
			L1319,762V810.5z M1345.8,821.3V870l18.1-1.4v-49.1L1345.8,821.3z M1337.1,870.6v-48.5l-18.1,1.8V872L1337.1,870.6z
			 M1310.4,1056.4v-46.7l-18.1,0.1v46.5H1310.4z M1337.1,932.6v-47.9l-18.1,1.2v47.6L1337.1,932.6z M1390.7,945.1l-18.1,0.7v47.9
			l18.1-0.5V945.1z M1363.9,946.1l-18.1,0.7v47.5l18.1-0.5V946.1z M1337.1,994.5v-47.4l-18.1,0.7V995L1337.1,994.5z M1372.6,882.2
			v48.6l18.1-0.9V881L1372.6,882.2z M1363.9,1009.4l-18.1,0.1v46.9h18.1V1009.4z M1426.2,1056.4h21.6v-47.7l-21.6,0.2V1056.4z
			 M1283.6,827.4l-17.4,1.7V876l17.4-1.3V827.4z M1426.2,992.3l21.6-0.5v-48.8l-21.6,0.8V992.3z M1283.6,888.3l-17.4,1.2v46.7
			l17.4-0.9V888.3z M1283.6,949.1l-17.4,0.7v46.5l17.4-0.4V949.1z M1283.6,1010l-17.4,0.1v46.3h17.4V1010z M1426.2,683v52.6
			l21.6-2.7v-53.3L1426.2,683z M1426.2,799.8l21.6-2.2v-52.2l-21.6,2.8V799.8z M1426.2,928.1l21.6-1.1v-49.9l-21.6,1.5V928.1z
			 M1426.2,863.9l21.6-1.6v-51.1l-21.6,2.1V863.9z M1399.4,816V866l18.1-1.4v-50.4L1399.4,816z M1399.4,944.7v48.2l18.1-0.5v-48.4
			L1399.4,944.7z M1417.5,1009l-18.1,0.1v47.3h18.1V1009z M1399.4,880.4v49.1l18.1-0.9v-49.4L1399.4,880.4z M1390.7,1009.2
			l-18.1,0.1v47.1h18.1V1009.2z M1399.4,751.6v50.8l18.1-1.8v-51.3L1399.4,751.6z M1283.6,705.7l-17.4,2.8v47.2l17.4-2.2V705.7z
			 M1399.4,687.3V739l18.1-2.3v-52.3L1399.4,687.3z M1283.6,766.5l-17.4,2.2v47l17.4-1.7V766.5z M1337.1,1009.6l-18.1,0.1v46.7h18.1
			V1009.6z"/>
		<linearGradient id="SVGID_20_" gradientUnits="userSpaceOnUse" x1="1358.6636" y1="689.7731" x2="1358.6636" y2="1071.026">
			<stop  offset="0" style="stop-color:#2EBCB0"/>
			<stop  offset="5.634495e-02" style="stop-color:#67C6B6"/>
			<stop  offset="0.1204" style="stop-color:#8BCFBC"/>
			<stop  offset="0.183" style="stop-color:#A2D7C0"/>
			<stop  offset="0.2431" style="stop-color:#B0DCC3"/>
			<stop  offset="0.2976" style="stop-color:#B4DDC4"/>
			<stop  offset="0.4126" style="stop-color:#ABDAC2"/>
			<stop  offset="0.5973" style="stop-color:#93D2BD"/>
			<stop  offset="0.8273" style="stop-color:#67C6B6"/>
			<stop  offset="1" style="stop-color:#2EBCB0"/>
		</linearGradient>
		<path class="st33" d="M1429.6,1056.3v-44.2l18.3-0.1v44.3H1429.6z M1402.8,1056.3v-44l14.7-0.1v44.1H1402.8z M1376,1056.3v-43.8
			l14.7-0.1v43.9H1376z M1349.2,1056.3v-43.6l14.8-0.1v43.7H1349.2z M1322.4,1056.3v-43.4l14.7-0.1v43.5H1322.4z M1295.6,1056.3
			v-43.2l14.7-0.1v43.3H1295.6z M1269.5,1056.3v-43l14.1-0.1v43.1H1269.5z M1269.5,952.9l14.1-0.5v43.3l-14.1,0.4V952.9z
			 M1295.6,951.9l14.7-0.6v43.7l-14.7,0.4V951.9z M1322.4,950.9l14.7-0.6v44l-14.7,0.4V950.9z M1349.2,949.9l14.8-0.6v44.3
			l-14.8,0.4V949.9z M1376,948.9l14.7-0.6V993l-14.7,0.4V948.9z M1402.8,947.9l14.7-0.6v45l-14.7,0.4V947.9z M1429.6,946.9l18.3-0.7
			v45.4l-18.3,0.5V946.9z M1269.5,892.6l14.1-1v43.6l-14.1,0.7V892.6z M1295.6,890.8l14.7-1v44.1l-14.7,0.7V890.8z M1322.4,889
			l14.7-1v44.5l-14.7,0.7V889z M1349.2,887.1l14.8-1v45l-14.8,0.7V887.1z M1376,885.3l14.7-1v45.5l-14.7,0.7V885.3z M1402.8,883.5
			l14.7-1v46l-14.7,0.7V883.5z M1429.6,881.7l18.3-1.2v46.5l-18.3,0.9V881.7z M1269.5,832.2l14.1-1.4v43.8l-14.1,1.1V832.2z
			 M1295.6,829.6l14.7-1.4v44.4l-14.7,1.1V829.6z M1322.4,827l14.7-1.5v45.1l-14.7,1.1V827z M1349.2,824.3l14.8-1.4v45.7l-14.8,1.1
			V824.3z M1376,821.7l14.7-1.4v46.3l-14.7,1.1V821.7z M1402.8,819.1l14.7-1.5v46.9l-14.7,1.1V819.1z M1429.6,816.4l18.3-1.8v47.6
			l-18.3,1.4V816.4z M1269.5,771.8l14.1-1.8v44.1l-14.1,1.4V771.8z M1295.6,768.4l14.7-1.9v44.8l-14.7,1.5V768.4z M1322.4,765
			l14.7-1.9v45.6l-14.7,1.5V765z M1349.2,761.6l14.8-1.9V806l-14.8,1.5V761.6z M1376,758.1l14.7-1.9v47.1l-14.7,1.5V758.1z
			 M1402.8,754.7l14.7-1.9v47.9l-14.7,1.5V754.7z M1429.6,751.2l18.3-2.3v48.7l-18.3,1.8V751.2z M1269.5,711.4l14.1-2.2v44.3
			l-14.1,1.8V711.4z M1295.6,707.3l14.7-2.3v45.2l-14.7,1.8V707.3z M1322.4,703l14.7-2.3v46.1l-14.7,1.8V703z M1349.2,698.8
			l14.8-2.3v47l-14.8,1.8V698.8z M1376,694.5l14.7-2.3v47.9l-14.7,1.8V694.5z M1402.8,690.2l14.7-2.3v48.8l-14.7,1.8V690.2z
			 M1429.6,686l18.3-2.9v49.8l-18.3,2.3V686z"/>
		<path class="st11" d="M1533,755.1v50l-11.5-1.8v-50.6L1533,755.1z M1567,700.1l-11.5-2.9v49.6l11.5,2.3V700.1z M1550,695.8
			l-11.5-2.9v50.5l11.5,2.3V695.8z M1521.5,688.7V740l11.5,2.3v-50.8L1521.5,688.7z M1521.5,816.9v49.7l11.5,1.4v-49.3L1521.5,816.9
			z M1550,932.1V884l-11.5-1.2v48.4L1550,932.1z M1538.5,756.2V806l11.5,1.8v-49.3L1538.5,756.2z M1567,762l-11.5-2.3v49l11.5,1.8
			V762z M1538.5,819.5v49.1l11.5,1.4v-48.7L1538.5,819.5z M1567,872v-48.1l-11.5-1.8v48.5L1567,872z M1567,933.5v-47.6l-11.5-1.2
			v47.9L1567,933.5z M1521.5,993.2l11.5,0.5v-47.9l-11.5-0.7V993.2z M1538.5,993.8l11.5,0.5v-47.5l-11.5-0.7V993.8z M1567,995v-47.2
			l-11.5-0.7v47.4L1567,995z M1521.5,881v48.9l11.5,0.9v-48.6L1521.5,881z M1538.5,1056.4h11.5v-46.9l-11.5-0.1V1056.4z
			 M1498.9,1008.9l-13.8-0.2v47.7h13.8V1008.9z M1498.9,943.7l-13.8-0.8v48.8l13.8,0.5V943.7z M1485.2,679.6v53.3l13.8,2.7V683
			L1485.2,679.6z M1498.9,748.2l-13.8-2.8v52.2l13.8,2.2V748.2z M1498.9,878.6l-13.8-1.5V927l13.8,1.1V878.6z M1498.9,813.4
			l-13.8-2.1v51.1l13.8,1.6V813.4z M1504.4,814.2v50.4l11.5,1.4V816L1504.4,814.2z M1504.4,944.1v48.4l11.5,0.5v-48.2L1504.4,944.1z
			 M1504.4,1056.4h11.5v-47.3l-11.5-0.1V1056.4z M1504.4,879.1v49.4l11.5,0.9v-49.1L1504.4,879.1z M1521.5,1056.4h11.5v-47.1
			l-11.5-0.1V1056.4z M1504.4,749.3v51.3l11.5,1.8v-50.8L1504.4,749.3z M1504.4,684.4v52.3l11.5,2.3v-51.7L1504.4,684.4z
			 M1555.5,1056.4h11.5v-46.7l-11.5-0.1V1056.4z"/>
		<linearGradient id="SVGID_21_" gradientUnits="userSpaceOnUse" x1="1524.4141" y1="670.6894" x2="1524.4141" y2="1059.4417">
			<stop  offset="0" style="stop-color:#0686A6"/>
			<stop  offset="3.828741e-02" style="stop-color:#3493AA"/>
			<stop  offset="0.1071" style="stop-color:#59AAAF"/>
			<stop  offset="0.1744" style="stop-color:#70BBB3"/>
			<stop  offset="0.239" style="stop-color:#7DC7B5"/>
			<stop  offset="0.2976" style="stop-color:#81CCB7"/>
			<stop  offset="0.4243" style="stop-color:#79C3B5"/>
			<stop  offset="0.6279" style="stop-color:#61AFB1"/>
			<stop  offset="0.8815" style="stop-color:#3493AA"/>
			<stop  offset="1" style="stop-color:#0686A6"/>
		</linearGradient>
		<path class="st34" d="M1555.5,1056.3v-43.5l8.1,0.1v43.4H1555.5z M1538.5,1056.3v-43.7l8.1,0.1v43.6H1538.5z M1521.5,1056.3v-43.9
			l8.1,0.1v43.8H1521.5z M1504.4,1056.3v-44.1l8.1,0.1v44H1504.4z M1485.2,1056.3V1012l10.4,0.1v44.2H1485.2z M1555.5,994.4v-44
			l8.1,0.5v43.8L1555.5,994.4z M1538.5,993.8v-44.3l8.1,0.5v44.2L1538.5,993.8z M1521.5,993.1v-44.7l8.1,0.5v44.5L1521.5,993.1z
			 M1504.4,992.4v-45l8.1,0.5v44.9L1504.4,992.4z M1485.2,991.7v-45.4l10.4,0.6v45.2L1485.2,991.7z M1555.5,932.6V888l8.1,0.9v44.3
			L1555.5,932.6z M1538.5,931.2v-45l8.1,0.9v44.8L1538.5,931.2z M1521.5,929.9v-45.5l8.1,0.9v45.2L1521.5,929.9z M1504.4,928.5v-46
			l8.1,0.9v45.7L1504.4,928.5z M1485.2,927v-46.5l10.4,1.1v46.2L1485.2,927z M1555.5,870.7v-45l8.1,1.3v44.7L1555.5,870.7z
			 M1538.5,868.7V823l8.1,1.3v45.4L1538.5,868.7z M1521.5,866.6v-46.3l8.1,1.3v46L1521.5,866.6z M1504.4,864.6v-46.9l8.1,1.3v46.6
			L1504.4,864.6z M1485.2,862.4v-47.6l10.4,1.6v47.2L1485.2,862.4z M1555.5,808.8v-45.5l8.1,1.7v45.2L1555.5,808.8z M1538.5,806.1
			v-46.3l8.1,1.7v45.9L1538.5,806.1z M1521.5,803.4v-47.1l8.1,1.6v46.7L1521.5,803.4z M1504.4,800.7v-47.8l8.1,1.6V802L1504.4,800.7
			z M1485.2,797.7V749l10.4,2.1v48.2L1485.2,797.7z M1555.5,746.9v-46l8.1,2v45.6L1555.5,746.9z M1538.5,743.6v-46.9l8.1,2v46.5
			L1538.5,743.6z M1521.5,740.2v-47.8l8.1,2v47.4L1521.5,740.2z M1504.4,736.9v-48.7l8.1,2v48.3L1504.4,736.9z M1485.2,733.1v-49.8
			l10.4,2.6v49.2L1485.2,733.1z"/>
		<polygon class="st13" points="1314.7,556.8 1447.8,511.1 1514.7,552 1511.8,554.3 1447.8,516.4 1318.4,558.5 		"/>
		<polygon class="st13" points="1283.6,612.5 1458.2,567.9 1545.9,612.8 1542,614.1 1458.2,572.7 1288.5,614.1 		"/>
		<polygon class="st13" points="1244.5,689.6 1471.1,648.4 1584.9,682.7 1579.8,685.2 1470.9,654.4 1250.9,691.3 		"/>
	</g>
	<g>
		<polygon class="st24" points="1325.6,658.2 1325.6,1078.1 1427.9,1078.1 1427.9,687.8 		"/>
		<polygon class="st25" points="1325.6,658.2 1216.2,690.9 1216.2,1078.1 1325.6,1078.1 		"/>
		<polygon class="st5" points="1325.6,658.2 1212.2,691.9 1212.2,681.8 1325.6,644.8 		"/>
		<polygon class="st6" points="1325.6,644.8 1325.6,658.2 1432.9,690.1 1432.9,680 		"/>
		<path class="st11" d="M1398.4,695.6l20,5v37.7l-20-4.6V695.6z M1365.9,687.4v38.7l22.3,5.2V693L1365.9,687.4z M1388.2,883.4v-37.9
			l-22.3-3.1v38.8L1388.2,883.4z M1365.9,739.1v38.8l22.3,4.2v-38.2L1365.9,739.1z M1398.4,783.9l20,3.8v-37.4l-20-4.3V783.9z
			 M1365.9,790.7v38.8l22.3,3.2v-38L1365.9,790.7z M1355.7,736.9l-20.5-4.4V772l20.5,3.9V736.9z M1398.4,834.1l20,2.9v-37l-20-3.5
			V834.1z M1355.7,788.9l-20.5-3.6V825l20.5,3V788.9z M1335.2,679.7V719l20.5,4.8v-38.9L1335.2,679.7z M1355.7,840.9l-20.5-2.9V878
			l20.5,2.1V840.9z M1398.4,884.4l20,2v-36.7l-20-2.8V884.4z M1365.9,1037.2v-38.8l22.3,0.5v37.9L1365.9,1037.2z M1365.9,895.1v38.8
			l22.3,1.6v-38.2L1365.9,895.1z M1398.4,936.2l20,1.4v-37.4l-20-2V936.2z M1365.9,946.7v38.8l22.3,0.6v-38L1365.9,946.7z
			 M1355.7,894.1l-20.5-2v39.6l20.5,1.5V894.1z M1398.4,986.4l20,0.5v-37l-20-1.2V986.4z M1355.7,946.1l-20.5-1.3v39.8l20.5,0.6
			V946.1z M1355.7,998.1l-20.5-0.5v40.1l20.5-0.3V998.1z M1398.4,1036.6l20-0.3v-36.7l-20-0.5V1036.6z"/>
		<linearGradient id="SVGID_22_" gradientUnits="userSpaceOnUse" x1="1374.9325" y1="684.7025" x2="1374.9325" y2="1044.7924">
			<stop  offset="0" style="stop-color:#0686A6"/>
			<stop  offset="3.828741e-02" style="stop-color:#3493AA"/>
			<stop  offset="0.1071" style="stop-color:#59AAAF"/>
			<stop  offset="0.1744" style="stop-color:#70BBB3"/>
			<stop  offset="0.239" style="stop-color:#7DC7B5"/>
			<stop  offset="0.2976" style="stop-color:#81CCB7"/>
			<stop  offset="0.4243" style="stop-color:#79C3B5"/>
			<stop  offset="0.6279" style="stop-color:#61AFB1"/>
			<stop  offset="0.8815" style="stop-color:#3493AA"/>
			<stop  offset="1" style="stop-color:#0686A6"/>
		</linearGradient>
		<path class="st35" d="M1335.2,1001.1l16.9,0.4v35.7l-16.9,0.3V1001.1z M1365.8,1001.8l18.7,0.5v34.4l-18.7,0.3V1001.8z
			 M1398.3,1002.6l16.4,0.4v33.2l-16.4,0.3V1002.6z M1398.3,986.3v-34l16.4,1v33.5L1398.3,986.3z M1365.8,985.4v-35.1l18.7,1.1v34.5
			L1365.8,985.4z M1335.2,984.6v-36.2l16.9,1V985L1335.2,984.6z M1398.3,936.2v-34.2l16.4,1.6v33.8L1398.3,936.2z M1365.8,933.8
			v-35.1l18.7,1.8v34.6L1365.8,933.8z M1335.2,931.6v-35.9l16.9,1.7v35.5L1335.2,931.6z M1398.3,884.4v-33.8l16.4,2.3V886
			L1398.3,884.4z M1365.8,881.1V846l18.7,2.6V883L1365.8,881.1z M1335.2,878.1v-36.4l16.9,2.4v35.7L1335.2,878.1z M1398.3,834.2v-34
			l16.4,2.9v33.5L1398.3,834.2z M1365.8,829.5v-35.1l18.7,3.3v34.5L1365.8,829.5z M1335.2,825.1V789l16.9,3v35.6L1335.2,825.1z
			 M1398.3,784.1v-34.2l16.4,3.5v33.7L1398.3,784.1z M1365.8,778v-35l18.7,4v34.5L1365.8,778z M1335.2,772.2v-35.9l16.9,3.6v35.4
			L1335.2,772.2z M1398.3,733.9v-34.4l16.4,4.1v34L1398.3,733.9z M1365.8,726.4v-35l18.7,4.7v34.6L1365.8,726.4z M1335.2,719.3
			v-35.6l16.9,4.3v35.3L1335.2,719.3z"/>
		<path class="st13" d="M1248.4,735.6l-20,5.5v-37.7l20-5.8V735.6z M1258.5,694.6v38.3l22.3-6.1V688L1258.5,694.6z M1280.9,881.7
			v-38.8l-22.3,4.1v37.9L1280.9,881.7z M1258.5,745.4v38.2l22.3-5.1v-38.8L1258.5,745.4z M1248.4,748l-20,5.1v37.4l20-4.6V748z
			 M1258.5,796.1v38l22.3-4.1v-38.8L1258.5,796.1z M1291,776.1l20.5-4.7v-39.6L1291,737V776.1z M1248.4,798.4l-20,4.4v37l20-3.7
			V798.4z M1291,828.2l20.5-3.8v-39.8L1291,789V828.2z M1291,685V724l20.5-5.6V679L1291,685z M1291,880.3l20.5-2.9v-40.1L1291,841
			V880.3z M1248.4,848.8l-20,3.6v36.7l20-2.8V848.8z M1258.4,1037.2v-37.9l22.3-1.3v38.8L1258.4,1037.2z M1258.4,897.7v38.2
			l22.3-2.3v-38.8L1258.4,897.7z M1248.3,899l-19.9,2.6V939l19.9-2.1V899z M1258.4,948.5v38l22.3-1.4v-38.8L1258.4,948.5z
			 M1290.8,932.5l20.5-2.1v-39.6l-20.5,2.7V932.5z M1248.3,949.4l-19.9,1.9v37l19.9-1.2V949.4z M1290.8,984.6l20.5-1.2v-39.8
			l-20.5,1.9V984.6z M1290.8,1036.7l20.5-0.3v-40.1l-20.5,1.2V1036.7z M1248.3,999.8l-19.9,1.1v36.7l19.9-0.3V999.8z"/>
		<linearGradient id="SVGID_23_" gradientUnits="userSpaceOnUse" x1="1271.7581" y1="690.7416" x2="1271.7581" y2="1046.7881">
			<stop  offset="0" style="stop-color:#2EBCB0"/>
			<stop  offset="5.634495e-02" style="stop-color:#67C6B6"/>
			<stop  offset="0.1204" style="stop-color:#8BCFBC"/>
			<stop  offset="0.183" style="stop-color:#A2D7C0"/>
			<stop  offset="0.2431" style="stop-color:#B0DCC3"/>
			<stop  offset="0.2976" style="stop-color:#B4DDC4"/>
			<stop  offset="0.4126" style="stop-color:#ABDAC2"/>
			<stop  offset="0.5973" style="stop-color:#93D2BD"/>
			<stop  offset="0.8273" style="stop-color:#67C6B6"/>
			<stop  offset="1" style="stop-color:#2EBCB0"/>
		</linearGradient>
		<path class="st36" d="M1232,1004.4l16.3-0.9v33.8l-16.3,0.3V1004.4z M1262,1002.7l18.7-1.1v35.2l-18.7,0.3V1002.7z M1294.4,1000.8
			l16.9-1v36.4l-16.9,0.3V1000.8z M1232,954.6l16.3-1.5v34l-16.3,1V954.6z M1262,951.8l18.7-1.8v35.1l-18.7,1.1V951.8z
			 M1294.4,948.7l16.9-1.6v36.2l-16.9,1V948.7z M1232,904.9l16.3-2.1V937l-16.3,1.7V904.9z M1262,900.9l18.7-2.5v35.1l-18.7,2V900.9
			z M1294.4,896.7l16.9-2.2v35.9l-16.9,1.8V896.7z M1232,855.6l16.4-3v33.8l-16.4,2.3V855.6z M1262.1,850.1l18.7-3.4v35.1l-18.7,2.7
			V850.1z M1294.6,844.2l16.9-3.1v36.4l-16.9,2.4V844.2z M1232,805.9l16.4-3.6v34l-16.4,3V805.9z M1262.1,799.3l18.7-4.1v35.1
			l-18.7,3.5V799.3z M1294.6,792.2l16.9-3.7v36.1l-16.9,3.1V792.2z M1232,756.1l16.4-4.2v34.2l-16.4,3.8V756.1z M1262.1,748.4
			l18.7-4.8v35l-18.7,4.3V748.4z M1294.6,740.1l16.9-4.3v35.8l-16.9,3.9V740.1z M1232,706.4l16.4-4.8v34.3l-16.4,4.5V706.4z
			 M1262.1,697.6l18.7-5.5v35l-18.7,5.1V697.6z M1294.6,688.1l16.9-5v35.6l-16.9,4.6V688.1z"/>
		<polygon class="st13" points="1212.2,691.9 1325.6,658.2 1432.9,690.1 1427.9,691.3 1325.4,662 1216.2,692.8 		"/>
	</g>
	<g>
		<polygon class="st5" points="1570.2,609.1 1585.8,465.7 1585.8,602 		"/>
		<polygon class="st6" points="1585.8,465.7 1598.5,607.8 1585.8,602 		"/>
		<polygon class="st8" points="1540.8,694.5 1540.8,618.5 1585.8,593.5 1585.8,674.4 		"/>
		<polygon class="st7" points="1630.8,694.5 1630.8,618.5 1585.8,593.5 1585.8,674.4 		"/>
		<polygon class="st7" points="1585.8,674.4 1585.8,1078.1 1651.5,1078.1 1651.5,702.9 		"/>
		<polygon class="st8" points="1585.8,674.4 1515.5,705.9 1515.5,1078.1 1585.8,1078.1 		"/>
		<polygon class="st5" points="1585.8,674.4 1513,706.8 1513,697.1 1585.8,661.6 		"/>
		<polygon class="st6" points="1585.8,661.6 1585.8,674.4 1654.6,705.1 1654.6,695.4 		"/>
		<path class="st11" d="M1632.5,710.4l12.8,4.8v36.2l-12.8-4.4V710.4z M1611.7,702.5v37.2l14.3,5v-36.8L1611.7,702.5z M1626,890.9
			v-36.5l-14.3-3v37.3L1626,890.9z M1611.7,752.2v37.3l14.3,4v-36.7L1611.7,752.2z M1632.5,795.3l12.8,3.6V763l-12.8-4.1V795.3z
			 M1611.7,801.8v37.3l14.3,3.1v-36.6L1611.7,801.8z M1605.1,750.1l-13.2-4.2v38l13.2,3.7V750.1z M1632.5,843.6l12.8,2.8v-35.6
			l-12.8-3.4V843.6z M1605.1,800l-13.2-3.5v38.3l13.2,2.8V800z M1591.9,695.1v37.8l13.2,4.6v-37.4L1591.9,695.1z M1605.1,850
			l-13.2-2.8v38.5l13.2,2V850z M1632.5,891.9l12.8,1.9v-35.3l-12.8-2.7V891.9z M1611.7,1038.8v-37.3l14.3,0.5v36.5L1611.7,1038.8z
			 M1611.7,902.2v37.3l14.3,1.5v-36.7L1611.7,902.2z M1632.5,941.7l12.8,1.4v-35.9l-12.8-1.9V941.7z M1611.7,951.8v37.3l14.3,0.6
			v-36.6L1611.7,951.8z M1605.1,901.2l-13.2-1.9v38l13.2,1.4V901.2z M1632.5,990l12.8,0.5v-35.6l-12.8-1.2V990z M1605.1,951.2
			l-13.2-1.2v38.3l13.2,0.5V951.2z M1605.1,1001.2l-13.2-0.5v38.5l13.2-0.3V1001.2z M1632.5,1038.2l12.8-0.3v-35.3l-12.8-0.5V1038.2
			z"/>
		<linearGradient id="SVGID_24_" gradientUnits="userSpaceOnUse" x1="1616.8398" y1="699.5675" x2="1616.8398" y2="1047.1309">
			<stop  offset="0" style="stop-color:#0686A6"/>
			<stop  offset="3.828741e-02" style="stop-color:#3493AA"/>
			<stop  offset="0.1071" style="stop-color:#59AAAF"/>
			<stop  offset="0.1744" style="stop-color:#70BBB3"/>
			<stop  offset="0.239" style="stop-color:#7DC7B5"/>
			<stop  offset="0.2976" style="stop-color:#81CCB7"/>
			<stop  offset="0.4243" style="stop-color:#79C3B5"/>
			<stop  offset="0.6279" style="stop-color:#61AFB1"/>
			<stop  offset="0.8815" style="stop-color:#3493AA"/>
			<stop  offset="1" style="stop-color:#0686A6"/>
		</linearGradient>
		<path class="st37" d="M1591.9,1004.4l9.6,0.3v34.2l-9.6,0.2V1004.4z M1611.7,1005.1l10.8,0.4v33l-10.8,0.3V1005.1z M1632.5,1005.9
			l9.2,0.3v31.8l-9.2,0.2V1005.9z M1632.5,990.1v-32.6l9.2,0.8v32.1L1632.5,990.1z M1611.7,989.2v-33.6l10.8,1v33.1L1611.7,989.2z
			 M1591.9,988.4v-34.6l9.6,0.9v34.1L1591.9,988.4z M1632.5,941.9v-32.7l9.2,1.4v32.4L1632.5,941.9z M1611.7,939.7v-33.6l10.8,1.6
			v33.1L1611.7,939.7z M1591.9,937.6v-34.4l9.6,1.4v34L1591.9,937.6z M1632.5,892.2v-32.3l9.2,1.9v31.7L1632.5,892.2z M1611.7,889
			v-33.6l10.8,2.3v32.9L1611.7,889z M1591.9,886.1v-34.8l9.6,2v34.2L1591.9,886.1z M1632.5,844v-32.5l9.2,2.4v32L1632.5,844z
			 M1611.7,839.5V806l10.8,2.9v33L1611.7,839.5z M1591.9,835.2v-34.5l9.6,2.6v34L1591.9,835.2z M1632.5,795.8v-32.6l9.2,3v32.2
			L1632.5,795.8z M1611.7,789.9v-33.4l10.8,3.4v33L1611.7,789.9z M1591.9,784.4v-34.2l9.6,3.1v33.8L1591.9,784.4z M1632.5,747.6
			v-32.7l9.2,3.5v32.5L1632.5,747.6z M1611.7,740.3V707l10.8,4v33L1611.7,740.3z M1591.9,733.5v-33.9l9.6,3.6v33.6L1591.9,733.5z"/>
		<path class="st9" d="M1536.2,748.9l-12.8,5.2v-36.2l12.8-5.6V748.9z M1542.7,709.4v36.8l14.3-5.9v-37.2L1542.7,709.4z M1557,889.3
			V852l-14.3,3.9v36.5L1557,889.3z M1542.7,758.2v36.7l14.3-4.9v-37.3L1542.7,758.2z M1536.2,760.7l-12.8,4.9v35.9l12.8-4.4V760.7z
			 M1542.7,807v36.6l14.3-4v-37.3L1542.7,807z M1563.6,787.7l13.2-4.5v-38l-13.2,5.1V787.7z M1536.2,809.2l-12.8,4.2V849l12.8-3.6
			V809.2z M1563.6,837.8l13.2-3.7v-38.3l-13.2,4.3V837.8z M1563.6,700.2v37.4l13.2-5.4v-37.8L1563.6,700.2z M1563.6,887.9l13.2-2.8
			v-38.5l-13.2,3.6V887.9z M1536.2,857.7l-12.8,3.5v35.3l12.8-2.7V857.7z M1542.6,1038.8v-36.5l14.3-1.2v37.3L1542.6,1038.8z
			 M1542.6,904.6v36.7l14.3-2.2v-37.3L1542.6,904.6z M1536.1,905.9l-12.8,2.5v35.9l12.8-2V905.9z M1542.6,953.5v36.6l14.3-1.3v-37.3
			L1542.6,953.5z M1563.4,938.1l13.1-2.1v-38l-13.1,2.6V938.1z M1536.1,954.4l-12.8,1.8v35.6l12.8-1.2V954.4z M1563.4,988.2
			l13.1-1.2v-38.3l-13.1,1.9V988.2z M1563.4,1038.3l13.1-0.3v-38.5l-13.1,1.1V1038.3z M1536.1,1002.9l-12.8,1.1v35.3l12.8-0.3
			V1002.9z"/>
		<linearGradient id="SVGID_25_" gradientUnits="userSpaceOnUse" x1="1551.8594" y1="699.0404" x2="1551.8594" y2="1045.5991">
			<stop  offset="0" style="stop-color:#2EBCB0"/>
			<stop  offset="5.634495e-02" style="stop-color:#67C6B6"/>
			<stop  offset="0.1204" style="stop-color:#8BCFBC"/>
			<stop  offset="0.183" style="stop-color:#A2D7C0"/>
			<stop  offset="0.2431" style="stop-color:#B0DCC3"/>
			<stop  offset="0.2976" style="stop-color:#B4DDC4"/>
			<stop  offset="0.4126" style="stop-color:#ABDAC2"/>
			<stop  offset="0.5973" style="stop-color:#93D2BD"/>
			<stop  offset="0.8273" style="stop-color:#67C6B6"/>
			<stop  offset="1" style="stop-color:#2EBCB0"/>
		</linearGradient>
		<path class="st38" d="M1527,1007.5l9.2-0.8v32.4l-9.2,0.2V1007.5z M1546.2,1005.8l10.7-0.9v33.6l-10.7,0.3V1005.8z M1567,1004
			l9.5-0.8v34.8l-9.5,0.2V1004z M1527,959.6l9.2-1.3v32.5l-9.2,0.8V959.6z M1546.2,956.9l10.7-1.5V989l-10.7,1V956.9z M1567,953.9
			l9.5-1.3v34.6l-9.5,0.9V953.9z M1527,911.8l9.2-1.8v32.7l-9.2,1.4V911.8z M1546.2,908l10.7-2.1v33.5l-10.7,1.7V908z M1567,903.9
			l9.5-1.9v34.3l-9.5,1.5V903.9z M1527,864.4l9.2-2.5v32.3l-9.2,2V864.4z M1546.3,859.1l10.8-2.9v33.5l-10.8,2.3V859.1z
			 M1567.2,853.4l9.6-2.6v34.7l-9.6,2V853.4z M1527,816.5l9.2-3v32.4l-9.2,2.6V816.5z M1546.3,810.2l10.8-3.5v33.4l-10.8,3V810.2z
			 M1567.2,803.3l9.6-3.1v34.4l-9.6,2.7V803.3z M1527,768.7l9.2-3.5v32.5l-9.2,3.2V768.7z M1546.3,761.3l10.8-4.1v33.4l-10.8,3.7
			V761.3z M1567.2,753.3l9.6-3.7v34.1l-9.6,3.3V753.3z M1527,720.9l9.2-4v32.7l-9.2,3.8V720.9z M1546.3,712.4l10.8-4.7V741
			l-10.8,4.4V712.4z M1567.2,703.2l9.6-4.2v33.9l-9.6,3.9V703.2z"/>
		<linearGradient id="SVGID_26_" gradientUnits="userSpaceOnUse" x1="1551.7535" y1="698.9518" x2="1551.7535" y2="1045.5111">
			<stop  offset="0" style="stop-color:#2EBCB0"/>
			<stop  offset="5.634495e-02" style="stop-color:#67C6B6"/>
			<stop  offset="0.1204" style="stop-color:#8BCFBC"/>
			<stop  offset="0.183" style="stop-color:#A2D7C0"/>
			<stop  offset="0.2431" style="stop-color:#B0DCC3"/>
			<stop  offset="0.2976" style="stop-color:#B4DDC4"/>
			<stop  offset="0.4126" style="stop-color:#ABDAC2"/>
			<stop  offset="0.5973" style="stop-color:#93D2BD"/>
			<stop  offset="0.8273" style="stop-color:#67C6B6"/>
			<stop  offset="1" style="stop-color:#2EBCB0"/>
		</linearGradient>
		<path class="st39" d="M1526.9,1007.4l9.2-0.8v32.4l-9.2,0.2V1007.4z M1546.1,1005.7l10.7-0.9v33.6l-10.7,0.3V1005.7z
			 M1566.9,1003.9l9.5-0.8v34.8l-9.5,0.2V1003.9z M1526.9,959.5l9.2-1.3v32.5l-9.2,0.8V959.5z M1546.1,956.8l10.7-1.5v33.6l-10.7,1
			V956.8z M1566.9,953.9l9.5-1.3v34.6l-9.5,0.9V953.9z M1526.9,911.7l9.2-1.8v32.7l-9.2,1.4V911.7z M1546.1,907.9l10.7-2.1v33.5
			l-10.7,1.7V907.9z M1566.9,903.8l9.5-1.9v34.3l-9.5,1.5V903.8z M1526.9,864.3l9.2-2.5V894l-9.2,2V864.3z M1546.2,859l10.8-2.9
			v33.5l-10.8,2.3V859z M1567.1,853.3l9.6-2.6v34.7l-9.6,2V853.3z M1526.9,816.4l9.2-3v32.4l-9.2,2.6V816.4z M1546.2,810.1l10.8-3.5
			V840l-10.8,3V810.1z M1567.1,803.3l9.6-3.1v34.4l-9.6,2.7V803.3z M1526.9,768.6l9.2-3.5v32.5l-9.2,3.2V768.6z M1546.2,761.2
			l10.8-4.1v33.4l-10.8,3.7V761.2z M1567.1,753.2l9.6-3.7v34.1l-9.6,3.3V753.2z M1526.9,720.8l9.2-4v32.7l-9.2,3.8V720.8z
			 M1546.2,712.3l10.8-4.7v33.3l-10.8,4.4V712.3z M1567.1,703.2l9.6-4.2v33.9l-9.6,3.9V703.2z"/>
		<polygon class="st5" points="1585.8,590.1 1585.8,599.7 1536.2,628.1 1536.2,619.1 		"/>
		<polygon class="st6" points="1585.8,590.1 1585.8,599.7 1635.4,628.1 1635.4,619.1 		"/>
		<polygon class="st13" points="1540.8,630.6 1536.2,628.1 1585.8,599.7 1635.4,628.1 1630.8,630.6 1585.8,605.4 		"/>
		<polygon class="st13" points="1515.5,709.4 1513,706.8 1585.8,674.4 1654.6,705.1 1651.5,706.8 1585.8,678.6 		"/>
	</g>
	<g>
		<g>
			<rect x="1092.6" y="653.2" class="st1" width="2.1" height="76.3"/>
			<rect x="1118.1" y="615.6" class="st1" width="2.2" height="113.9"/>
			<polygon class="st1" points="1080.4,726.3 1080.4,762.1 1108.2,754.3 1108.2,712.8 			"/>
			<polygon class="st2" points="1108.2,712.8 1140.5,740.7 1140.5,764.7 1108.2,754.3 			"/>
		</g>
		<polygon class="st3" points="1161.4,741.3 1161.4,788.6 1256.8,806.8 1256.8,768.1 		"/>
		<polygon class="st4" points="1161.4,741.3 1059.4,771 1059.4,806.8 1161.4,788.6 		"/>
		<polygon class="st5" points="1161.4,741.3 1055.7,771.9 1055.7,753.5 1161.4,720 		"/>
		<polygon class="st6" points="1161.4,720 1161.4,741.3 1261.4,770.3 1261.4,751.9 		"/>
		<polygon class="st3" points="1162.1,783.2 1162.1,1078.1 1278.9,1078.1 1278.9,812.8 		"/>
		<polygon class="st4" points="1162.1,783.2 1037,815.9 1037,1078.1 1162.1,1078.1 		"/>
		<polygon class="st5" points="1162.1,783.2 1032.5,816.9 1032.5,796.7 1162.1,759.7 		"/>
		<polygon class="st6" points="1162.1,759.7 1162.1,783.2 1284.6,815.1 1284.6,794.9 		"/>
		<polygon class="st7" points="1278.9,1025.4 1162.1,1015.6 1162.1,1078.1 1278.9,1078.1 		"/>
		<path class="st3" d="M1199.3,1078.1h-23.8v-41.8c0-11.1,23.8-7.8,23.8,3.2V1078.1z M1233.9,1042.2c0-10.3-23.8-13.6-23.8-3.2v39.1
			h23.8V1042.2z M1268.5,1044.6c0-9.7-23.8-12.9-23.8-3.2v36.7h23.8V1044.6z"/>
		<polygon class="st8" points="1037,1027.9 1162.1,1015.6 1162.1,1078.1 1037,1078.1 		"/>
		<path class="st9" d="M1073.8,860.6l-22.8,5.5v-37.7l22.8-5.8V860.6z M1085.4,819.6v38.3l25.5-6.1V813L1085.4,819.6z
			 M1110.9,1006.7v-38.8l-25.5,4.1v37.9L1110.9,1006.7z M1085.4,870.4v38.2l25.5-5.1v-38.8L1085.4,870.4z M1073.8,873l-22.8,5.1
			v37.4l22.8-4.6V873z M1085.4,921.2v38l25.5-4.1v-38.8L1085.4,921.2z M1122.5,901.1l23.5-4.7v-39.6l-23.5,5.3V901.1z M1073.8,923.4
			l-22.8,4.4v37l22.8-3.7V923.4z M1122.5,953.2l23.5-3.8v-39.8l-23.5,4.5V953.2z M1122.5,810V849l23.5-5.6V804L1122.5,810z
			 M1122.5,1005.3l23.5-2.9v-40.1l-23.5,3.7V1005.3z M1073.8,973.8l-22.8,3.6v36.7l22.8-2.8V973.8z"/>
		<linearGradient id="SVGID_27_" gradientUnits="userSpaceOnUse" x1="1100.436" y1="814.7907" x2="1100.436" y2="1014.7067">
			<stop  offset="0" style="stop-color:#2EBCB0"/>
			<stop  offset="5.634495e-02" style="stop-color:#67C6B6"/>
			<stop  offset="0.1204" style="stop-color:#8BCFBC"/>
			<stop  offset="0.183" style="stop-color:#A2D7C0"/>
			<stop  offset="0.2431" style="stop-color:#B0DCC3"/>
			<stop  offset="0.2976" style="stop-color:#B4DDC4"/>
			<stop  offset="0.4126" style="stop-color:#ABDAC2"/>
			<stop  offset="0.5973" style="stop-color:#93D2BD"/>
			<stop  offset="0.8273" style="stop-color:#67C6B6"/>
			<stop  offset="1" style="stop-color:#2EBCB0"/>
		</linearGradient>
		<path class="st40" d="M1054.9,980.7l18.9-3v33.5l-18.9,2.3V980.7z M1089.3,975.3l21.6-3.5v34.8l-21.6,2.7V975.3z M1126.4,969.3
			l19.6-3.1v36.1l-19.6,2.4V969.3z M1054.9,931l18.9-3.6v33.7l-18.9,3.1V931z M1089.3,924.4l21.6-4.1V955l-21.6,3.5V924.4z
			 M1126.4,917.3l19.6-3.8v35.8l-19.6,3.2V917.3z M1054.9,881.3l18.9-4.2v33.9l-18.9,3.8V881.3z M1089.3,873.6l21.6-4.8v34.7
			l-21.6,4.3V873.6z M1126.4,865.2l19.6-4.4v35.5l-19.6,3.9V865.2z M1054.9,831.5l18.9-4.8v34l-18.9,4.5V831.5z M1089.3,822.7
			l21.6-5.5v34.7l-21.6,5.2V822.7z M1126.4,813.2l19.6-5v35.3l-19.6,4.7V813.2z"/>
		<path class="st11" d="M1245.2,821.6l22.8,5v37.7l-22.8-4.6V821.6z M1208.1,813.5v38.7l25.5,5.2v-38.3L1208.1,813.5z
			 M1233.6,1009.4v-37.9l-25.5-3.1v38.8L1233.6,1009.4z M1208.1,865.1v38.8l25.5,4.2v-38.2L1208.1,865.1z M1245.2,910l22.8,3.8
			v-37.4l-22.8-4.3V910z M1208.1,916.7v38.8l25.5,3.2v-38L1208.1,916.7z M1196.5,862.9l-23.5-4.4v39.6l23.5,3.9V862.9z
			 M1245.2,960.2l22.8,2.9v-37l-22.8-3.5V960.2z M1196.5,914.9l-23.5-3.6v39.8l23.5,3V914.9z M1173,805.8v39.3l23.5,4.8v-38.9
			L1173,805.8z M1196.5,966.9L1173,964v40.1l23.5,2.1V966.9z M1245.2,1010.4l22.8,2v-36.7l-22.8-2.8V1010.4z"/>
		<linearGradient id="SVGID_28_" gradientUnits="userSpaceOnUse" x1="1218.5725" y1="810.0513" x2="1218.5725" y2="1017.8076">
			<stop  offset="0" style="stop-color:#0686A6"/>
			<stop  offset="3.828741e-02" style="stop-color:#3493AA"/>
			<stop  offset="0.1071" style="stop-color:#59AAAF"/>
			<stop  offset="0.1744" style="stop-color:#70BBB3"/>
			<stop  offset="0.239" style="stop-color:#7DC7B5"/>
			<stop  offset="0.2976" style="stop-color:#81CCB7"/>
			<stop  offset="0.4243" style="stop-color:#79C3B5"/>
			<stop  offset="0.6279" style="stop-color:#61AFB1"/>
			<stop  offset="0.8815" style="stop-color:#3493AA"/>
			<stop  offset="1" style="stop-color:#0686A6"/>
		</linearGradient>
		<path class="st41" d="M1245.2,1010.3v-33.5l18.9,2.3v32.9L1245.2,1010.3z M1208.1,1007v-34.8l21.6,2.7v34.1L1208.1,1007z
			 M1173,1003.9v-36.1l19.6,2.4v35.4L1173,1003.9z M1245.2,960.1v-33.7l18.9,2.9v33.2L1245.2,960.1z M1208.1,955.4v-34.8l21.6,3.4
			v34.2L1208.1,955.4z M1173,951v-35.8l19.6,3v35.3L1173,951z M1245.2,910v-33.9l18.9,3.5v33.5L1245.2,910z M1208.1,903.8v-34.8
			l21.6,4.1v34.3L1208.1,903.8z M1173,898.1v-35.6l19.6,3.7v35.1L1173,898.1z M1245.2,859.8v-34.1l18.9,4.2v33.8L1245.2,859.8z
			 M1208.1,852.3v-34.7l21.6,4.8v34.3L1208.1,852.3z M1173,845.1v-35.3l19.6,4.3v35L1173,845.1z"/>
		<g>
			<path class="st11" d="M1259.3,1046.2c0-5-6.3-8.3-12.4-8.9c-1.3,1-2.2,2.3-2.2,4.1v36.7h14.6V1046.2z"/>
			<path class="st11" d="M1190.2,1041.1c0-5.5-5.9-9.1-11.9-9.9c-1.6,1.1-2.7,2.8-2.7,5.1v41.8h14.6V1041.1z"/>
			<path class="st11" d="M1224.7,1043.8c0-5.3-6.1-8.7-12.2-9.4c-1.5,1-2.4,2.5-2.4,4.6v39.1h14.6V1043.8z"/>
		</g>
		<path class="st6" d="M1122.5,1039.5c0-11.1,25.5-14.3,25.5-3.2v41.8h-25.5V1039.5z M1085.4,1078.1h25.5V1039
			c0-10.3-25.5-7.1-25.5,3.2V1078.1z M1048.3,1078.1h25.5v-36.7c0-9.7-25.5-6.5-25.5,3.2V1078.1z"/>
		<g>
			<path class="st3" d="M1067.3,1035.8c-6.2,0.9-12.3,4.1-12.3,8.8v33.5h18.8v-36.7C1073.8,1038.2,1071,1036.4,1067.3,1035.8z"/>
			<path class="st3" d="M1104.3,1032.9c-6.2,0.9-12.1,4.3-12.1,9.3v35.9h18.8V1039C1110.9,1035.5,1108.1,1033.6,1104.3,1032.9z"/>
			<path class="st3" d="M1141.2,1029.8c-6.1,1-12,4.5-12,9.8v38.5h18.8v-41.8C1148.1,1032.5,1145.1,1030.5,1141.2,1029.8z"/>
		</g>
		<polygon class="st13" points="1055.7,771.9 1161.4,741.3 1261.4,770.3 1256.8,774 1162.1,747.2 1059.4,774 		"/>
		<polygon class="st13" points="1032.5,816.9 1162.1,783.2 1284.6,815.1 1278.9,817.9 1162.1,790.3 1037,819.1 		"/>
	</g>
	<linearGradient id="SVGID_29_" gradientUnits="userSpaceOnUse" x1="787.3213" y1="355.4669" x2="787.3213" y2="292.7458">
		<stop  offset="5.952380e-02" style="stop-color:#FBF7BF"/>
		<stop  offset="7.957944e-02" style="stop-color:#E9E3B2"/>
		<stop  offset="0.2186" style="stop-color:#9B967B"/>
		<stop  offset="0.3578" style="stop-color:#656253"/>
		<stop  offset="0.494" style="stop-color:#424039"/>
		<stop  offset="0.6266" style="stop-color:#2A2925"/>
		<stop  offset="0.7546" style="stop-color:#161614"/>
		<stop  offset="0.8761" style="stop-color:#070706"/>
		<stop  offset="0.9841" style="stop-color:#010101"/>
	</linearGradient>
	<path class="st42" d="M771.4,211.7V323l31.8-11.3L771.4,211.7z"/>
</g>
</svg>
