<?xml version="1.0" encoding="utf-8"?>
<!-- Generator: Adobe Illustrator 22.0.1, SVG Export Plug-In . SVG Version: 6.00 Build 0)  -->
<svg version="1.1" id="Layer_1" xmlns="http://www.w3.org/2000/svg" xmlns:xlink="http://www.w3.org/1999/xlink" x="0px" y="0px"
	 viewBox="0 0 500 500" style="enable-background:new 0 0 500 500;" xml:space="preserve">
<style type="text/css">
	.st0{fill:#30B6CC;}
	.st1{fill:#FFFFFF;}
</style>
<g>
	<path class="st0" d="M199.9,171.6c0-1.4-0.3-2.5-0.9-3.1c-0.6-0.7-1.5-1-2.8-1h-4.4v8.5h4.4C198.7,176,199.9,174.6,199.9,171.6z"/>
	<path class="st0" d="M229,167.5h-4.6v7.6h4.6c1.2,0,2.1-0.3,2.7-1c0.6-0.7,0.9-1.6,0.9-2.9c0-1.2-0.3-2.2-0.9-2.8
		C231.1,167.9,230.2,167.5,229,167.5z"/>
	<path class="st1" d="M254.4,336.2h-4.6v7.6h4.6c1.2,0,2.1-0.3,2.7-1c0.6-0.7,0.9-1.6,0.9-2.9c0-1.2-0.3-2.2-0.9-2.8
		C256.5,336.5,255.6,336.2,254.4,336.2z"/>
	<path class="st1" d="M255.1,238.4c-4.1-8.7-8.3-17.3-12.5-25.9c-1-2.1-2.1-4.3-3.5-7c-5.6,11.5-10.9,22.1-16,32.9
		c-1.1,2.3-2.5,3.2-5,3.5c-11.8,1.5-23.6,3.2-35.8,4.9c0.5,0.7,0.8,1.2,1.1,1.5c8.3,8,16.6,16.1,25,24c1.5,1.4,2.4,2.5,1.9,4.9
		c-1.2,5.3-2,10.7-2.9,16.1c-1.2,6.7-2.3,13.3-3.6,20.6c11.3-6,21.8-11.6,32.3-17.3c2.2-1.2,3.9-1.2,6.1,0
		c9.4,5.2,19,10.2,28.5,15.3c1.1,0.6,2.2,1,3.8,1.8c-2.2-12-4.3-23.3-6.3-34.7c-0.3-1.8-0.7-4.4,0.2-5.4c4-4.2,8.5-7.9,12.6-12
		c4.8-4.8,9.5-9.9,14.3-15c-11.9-1.6-23.7-3.3-35.5-4.8C257.4,241.6,256.1,240.6,255.1,238.4z M238.3,288.6h-14.6v-0.5
		c3.3,0,5-1.6,5-4.9V253c0-2-0.1-3.2-0.2-3.7c-0.1-0.4-0.4-0.7-1-0.7c-0.4,0-1.7,0.4-3.9,1.1v-0.5c1.3-0.7,2.4-1.3,3.2-1.8
		s1.7-1.2,2.6-2c0.8-0.8,1.8-1.9,2.8-3.2h1v41c0,1.7,0.4,3,1.2,3.7c0.8,0.8,2.1,1.1,3.7,1.1V288.6z M257.2,288.6h-14.6v-0.5
		c3.3,0,5-1.6,5-4.9V253c0-2-0.1-3.2-0.2-3.7c-0.1-0.4-0.4-0.7-1-0.7c-0.4,0-1.7,0.4-3.9,1.1v-0.5c1.3-0.7,2.4-1.3,3.2-1.8
		s1.7-1.2,2.6-2c0.8-0.8,1.8-1.9,2.8-3.2h1v41c0,1.7,0.4,3,1.2,3.7c0.8,0.8,2.1,1.1,3.7,1.1V288.6z"/>
	<polygon class="st1" points="235.5,336.1 232.9,346.4 239.6,346.4 237,336.1 	"/>
	<path class="st1" d="M498.5,255.9c-7.2-126.4-138.5-237-268.5-243.4c-20.5-1-105.5-5.2-167.7,55.3C3.7,124.8,2.6,203,2,240.5
		c-0.5,34.6-1.5,99.7,42.6,156.1c63.6,81.5,171.4,81.4,201.5,81.4c23.9,0,154.1,0,219.3-99.2C471.9,368.9,502.2,320.8,498.5,255.9z
		 M277.6,94.6c4.8,1.5,9.3,2.7,13.8,4.3c29.2,10.3,53.3,27.6,72.4,51.9c1.7,2.2,3.1,2.9,6.1,2.3c11.7-2.4,22.8,5.3,24.6,16.5
		c1.9,12.3-6.1,23-18.4,24.4c-11.5,1.3-22-7.5-22.8-19.5c-0.5-6.1,1.9-11.4,6.2-16.2c-21.7-28.2-49.4-46.9-83.8-56
		C276.3,100,276.9,97.6,277.6,94.6z M329.1,258.5c2.1,10.7,3.9,21.4,5.8,32.1c0.1,0.5,0,1,0,2c-12.1-6.4-24-12.7-36.1-19.1
		c1.2-2.3,2.4-4.4,3.9-7.1c6.9,3.7,13.8,7.3,21.6,11.4c-1.4-7.9-2.5-14.8-3.9-21.6c-0.6-3.2-0.2-5.4,2.4-7.9
		c5.1-4.9,9.7-10.4,14.3-15.5c-5.8-0.8-12.4-1.9-19-2.6c-4-0.4-6.5-1.8-8.1-5.7c-2.6-6.2-5.8-12.2-9.2-19.1
		c-3.8,7.6-7.2,14.6-10.8,21.9c-2.4-1.2-4.7-2.2-7.2-3.5c6-12.3,11.8-24.4,18-37.1c5.3,10.9,10.4,21.1,15.2,31.4
		c1.3,2.8,2.8,4,6,4.4c11.2,1.3,22.3,3,34.2,4.7c-1.2,1.3-1.9,2.2-2.8,3c-7.4,7.1-14.7,14.3-22.3,21.3
		C328.9,253.7,328.6,255.7,329.1,258.5z M283.9,179.6c0.2,1,0.7,1.7,1.4,2.2c0.7,0.5,1.8,0.8,3.3,0.8c1.2,0,2.8-0.2,4.7-0.5l0.1,2.3
		c-2.1,0.4-3.8,0.6-5.3,0.6c-2,0-3.6-0.4-4.7-1.1c-1.1-0.7-1.8-1.8-2.2-3.3c-0.4-1.4-0.6-3.3-0.6-5.7c0-2.4,0.2-4.4,0.6-5.8
		c0.4-1.4,1.2-2.5,2.2-3.2c1.1-0.7,2.5-1.1,4.5-1.1c1.6,0,3.4,0.2,5.5,0.7l-0.1,2.2c-1.8-0.3-3.4-0.5-4.8-0.5
		c-1.4,0-2.5,0.3-3.2,0.8c-0.7,0.5-1.2,1.3-1.4,2.4c-0.2,1.1-0.4,2.7-0.3,4.9C283.6,177.2,283.7,178.6,283.9,179.6z M307.4,173.7
		v2.4h-7.7v6.3h9.4v2.4H297v-19.5h12.1v2.4h-9.4v6.1H307.4z M314.7,171.7c0.3,0.4,0.8,0.7,1.4,1c0.6,0.3,1.6,0.5,2.9,0.8
		c1.4,0.3,2.4,0.7,3.2,1.1c0.8,0.4,1.3,1,1.7,1.6c0.3,0.7,0.5,1.5,0.5,2.6c0,2-0.5,3.5-1.6,4.5c-1.1,1-2.7,1.5-4.8,1.5
		c-1.3,0-3.1-0.2-5.3-0.5l-1-0.2l0.3-2.2c2.6,0.3,4.5,0.5,5.8,0.5c2.6,0,3.8-1.2,3.8-3.5c0-0.6-0.1-1.2-0.4-1.5
		c-0.3-0.4-0.7-0.7-1.3-0.9c-0.6-0.2-1.4-0.5-2.4-0.7c-1.5-0.4-2.7-0.8-3.6-1.2c-0.9-0.4-1.5-1-1.9-1.7c-0.4-0.7-0.6-1.6-0.6-2.8
		c0-1.8,0.5-3.2,1.6-4.1c1.1-0.9,2.7-1.4,4.8-1.4c0.8,0,1.6,0,2.5,0.1c0.9,0.1,2.1,0.3,3.6,0.5l-0.2,2.2c-2.6-0.3-4.5-0.5-5.6-0.5
		c-2.6,0-3.9,0.9-3.9,2.8C314.3,170.8,314.4,171.4,314.7,171.7z M262.2,165.2h4.9l6.6,17.1h0.5v-17.1h2.7v19.5h-4.8l-6.8-17.1h-0.5
		v17.1h-2.7V165.2z M267.4,234.8c14.1,1.7,28.1,3.7,42.1,5.6c1.2,0.2,2.3,0.5,3.9,0.8c-0.8,0.9-1.4,1.7-2.1,2.3
		c-10.8,10.3-21.5,20.7-32.3,31c-2.3,2.2-2.7,4.6-2.1,7.7c2.9,15.3,5.6,30.6,8.4,46.7c-8.7-4.6-16.8-8.9-24.9-13.2
		c-6.1-3.2-12.2-6.4-18.2-9.8c-2.3-1.3-4.1-1.2-6.4,0.1c-12.9,7-25.8,13.9-38.8,20.8c-1.1,0.6-2.3,1.2-4.1,2.1
		c1.3-7.2,2.4-13.9,3.6-20.6c1.7-9.3,3.5-18.6,4.9-28c0.2-1.4-0.5-3.5-1.5-4.6c-10.9-10.7-22-21.3-33-31.9c-0.6-0.6-1.5-1-2.2-1.5
		c0.2-0.4,0.3-0.7,0.5-1.1c14.9-2.1,29.8-4.3,44.8-6.1c4.4-0.5,7-1.9,9-6.2c6.3-13.8,13.1-27.3,20.1-41.7c1,1.9,1.7,3.1,2.3,4.5
		c6.1,12.6,12.4,25.1,18.3,37.9C261.3,233,263.6,234.4,267.4,234.8z M273.3,346.2c-0.3-0.4-0.7-0.7-1.3-0.9
		c-0.6-0.2-1.4-0.5-2.4-0.7c-1.5-0.4-2.7-0.8-3.6-1.2c-0.9-0.4-1.5-1-1.9-1.7c-0.4-0.7-0.6-1.6-0.6-2.8c0-1.8,0.5-3.2,1.6-4.1
		c1.1-0.9,2.7-1.4,4.8-1.4c0.8,0,1.6,0,2.5,0.1c0.9,0.1,2.1,0.3,3.6,0.5l-0.2,2.2c-2.6-0.3-4.5-0.5-5.6-0.5c-2.6,0-3.9,0.9-3.9,2.8
		c0,0.7,0.1,1.3,0.4,1.6c0.3,0.4,0.8,0.7,1.4,1c0.6,0.3,1.6,0.5,2.9,0.8c1.4,0.3,2.4,0.7,3.2,1.1c0.8,0.4,1.3,1,1.7,1.6
		c0.3,0.7,0.5,1.5,0.5,2.6c0,2-0.5,3.5-1.6,4.5c-1.1,1-2.7,1.5-4.8,1.5c-1.3,0-3.1-0.2-5.3-0.5l-1-0.2l0.3-2.2
		c2.6,0.3,4.5,0.5,5.8,0.5c2.6,0,3.8-1.2,3.8-3.5C273.7,347.1,273.5,346.6,273.3,346.2z M260.9,353.4h-3l-3.2-7.2h-5v7.2h-2.7v-19.5
		h7.3c2.2,0,3.8,0.5,4.8,1.5c1.1,1,1.6,2.5,1.6,4.6c0,2.9-1.1,4.8-3.4,5.7L260.9,353.4z M244.1,353.4h-2.7l-1.2-4.6h-7.9l-1.2,4.6
		h-2.7l5.1-19.5h5.6L244.1,353.4z M147.4,252.3c-7.3-7.4-14.9-14.5-22.4-21.7c-0.9-0.9-2.1-1.5-3.2-2.3c0.2-0.4,0.4-0.7,0.6-1.1
		c7.7-1.1,15.5-2.2,23.2-3.3c4.1-0.6,8.3-0.9,12.3-1.8c1.4-0.3,3-1.9,3.7-3.3c4.6-9.1,9-18.4,13.5-27.6c0.6-1.2,1.3-2.4,2.2-4.3
		c6.1,12.5,11.9,24.5,17.9,36.8c-2.3,1.2-4.6,2.3-7.2,3.6c-3.6-7.3-7.1-14.3-10.8-22c-3.4,7.1-6.8,13.4-9.5,19.9
		c-1.4,3.3-3.5,4.4-6.7,4.7c-6.4,0.7-12.9,1.7-19.3,2.5c-0.2,0-0.5,0.1-0.6,0.2c4.7,5.2,9.3,10.7,14.3,15.6c2.3,2.3,3,4.4,2.3,7.5
		c-1.4,6.3-2.5,12.6-3.6,19c-0.1,0.7,0,1.5,0,2.7c7.2-3.8,14.1-7.4,21.2-11.2c0.4,0.4,0.8,0.7,1,1.1c3.4,5.7,3.3,5.6-2.5,8.7
		c-10.1,5.3-20.1,10.8-30.9,16.6c0.5-3.1,0.9-5.5,1.3-7.9c1.6-9.2,3.4-18.3,4.9-27.6C149.4,255.7,148.6,253.4,147.4,252.3z
		 M167.9,173.7v2.4h-7.7v6.3h9.4v2.4h-12.1v-19.5h12.1v2.4h-9.4v6.1H167.9z M171.3,165.2h3l4.5,8l4.6-8h2.9l-5.9,9.9l5.9,9.6h-3
		l-4.5-7.7l-4.6,7.7h-2.9l5.9-9.5L171.3,165.2z M189.1,184.7v-19.5h7.2c2.2,0,3.8,0.5,4.9,1.6c1.1,1.1,1.6,2.7,1.6,4.9
		c0,2.2-0.5,3.9-1.6,5.1c-1.1,1.1-2.7,1.7-4.8,1.7h-4.4v6.3H189.1z M216.3,173.7v2.4h-7.7v6.3h9.4v2.4h-12.1v-19.5H218v2.4h-9.4v6.1
		H216.3z M235.5,184.7h-3l-3.2-7.2h-5v7.2h-2.7v-19.5h7.3c2.2,0,3.8,0.5,4.8,1.5c1.1,1,1.6,2.5,1.6,4.6c0,2.9-1.1,4.8-3.4,5.7
		L235.5,184.7z M239.2,184.7v-19.5h2.7v19.5H239.2z M256.9,173.7v2.4h-7.7v6.3h9.4v2.4h-12.1v-19.5h12.1v2.4h-9.4v6.1H256.9z
		 M157.2,112.9c18-10.8,37.4-17.9,58.2-20.8c2.8-0.4,3.4-2,4.1-4.2c3.1-9.9,12.6-15.8,22.6-14.4c10,1.4,17.4,9.8,17.8,20.1
		c0.4,9.8-6.6,18.6-16.5,20.8c-9.2,2-19.1-2.6-22.9-11.4c-1.4-3.3-3.1-3.3-5.9-2.8c-31.5,5.5-58.7,19.3-81.5,41.7
		c-0.5,0.4-1,0.8-1.9,1.6c-2-2-3.7-3.7-5.6-5.6C135.2,128,145.7,119.8,157.2,112.9z M92.1,189.6c0.7-1.9,0.5-2.9-0.9-4.4
		c-6.8-7-8.1-16.5-3.5-24.7c4.2-7.7,13.3-12,21.8-10.4c9.5,1.9,16,8.9,17.1,18.7c1.3,10.9-7.7,21.6-18.7,22.3c-2.4,0.1-4.9,0-7.7,0
		c-13.1,32.3-14.6,65.4-5.2,99.3c-2.6,0.8-4.9,1.4-8,2.4c-1.5-7.8-3.4-15.4-4.5-23C78.4,242.3,81.8,215.5,92.1,189.6z M196.5,396.8
		c-0.3,1-0.6,1.9-1.2,3.8c-8-3.2-15.9-5.9-23.5-9.4c-22.4-10.4-41.2-25.5-56.5-44.8c-1.6-2-2.8-2.6-5.5-2c-10,2.5-20-2.7-23.9-12.1
		c-3.9-9.2-0.6-19.9,7.7-25.4c8.2-5.4,19.7-4.1,26.4,2.9c7.1,7.5,7.7,18.7,1.4,27.1c-0.5,0.6-1,1.2-1.7,2.1
		c20.4,26.2,46.3,43.9,78,53.5C197.3,394.1,196.9,395.5,196.5,396.8z M205.7,345.2v8.1H203v-8.1l-6.2-11.4h3l4.5,8.7l4.5-8.7h3.1
		L205.7,345.2z M214.4,333.8h12.1v2.4h-9.4v6.1h7.7v2.4h-7.7v6.3h9.4v2.4h-12.1V333.8z M325.1,380.8c-19,12.2-39.7,20.2-62.1,23.4
		c-2.7,0.4-3.5,1.8-4.2,4.1c-3,9.9-12.5,15.9-22.5,14.5c-10-1.4-17.6-9.9-17.9-20c-0.3-9.9,6.6-18.7,16.4-20.9
		c9.2-2.1,19.2,2.6,22.9,11.4c1.4,3.2,3.1,3.4,5.9,2.9c30.9-5.4,57.8-18.8,80.4-40.6c0.5-0.4,0.9-0.9,1.3-1.2c2,2,3.8,3.7,5.7,5.6
		C343.2,367.8,334.5,374.8,325.1,380.8z M386.5,312.6c6.6,7,7.8,16.7,3.1,24.8c-4.4,7.7-13.3,11.6-22.3,9.8
		c-8.8-1.7-15.3-9.1-16.4-18.5c-1.4-12.4,10-24,22.5-22.3c3.4,0.4,4.5-0.6,5.6-3.5c11.3-29.1,13.2-58.8,6.4-89.1
		c-0.2-1.1-0.5-2.3-0.7-3.6c2.5-0.7,4.8-1.3,8.1-2.2c1.4,8.5,3.1,16.6,3.9,24.8c2.6,25.9-1.1,51-11,75.1
		C384.8,309.8,385,311,386.5,312.6z"/>
	<path class="st1" d="M239.1,81.3c7,0,12.7,5.9,12.6,13c-0.1,6.9-5.9,12.6-12.7,12.5c-7-0.1-12.5-5.8-12.4-12.8
		C226.5,87,232.2,81.3,239.1,81.3z"/>
	<path class="st1" d="M371.4,339.5c-7,0-12.5-5.7-12.4-12.7c0-7,5.6-12.5,12.7-12.5c7.1,0,12.8,5.8,12.6,12.9
		C384.2,334.2,378.5,339.6,371.4,339.5z"/>
	<path class="st1" d="M105.1,336.9c-7.1-0.1-12.7-5.6-12.8-12.5c-0.1-7.1,5.7-13,12.7-12.9c6.8,0.1,12.5,5.9,12.6,12.7
		C117.7,331.1,111.9,337,105.1,336.9z"/>
	<path class="st1" d="M141.2,232.8c-0.1-0.1-0.1-0.1-0.2-0.2C140.8,232.9,140.9,232.8,141.2,232.8z"/>
	<path class="st1" d="M373.9,185.8c7.1,0.1,12.6-5.3,12.7-12.4c0-7-5.6-12.7-12.6-12.7c-7,0-12.7,5.6-12.8,12.6
		C361.2,180.2,366.8,185.7,373.9,185.8z"/>
	<path class="st1" d="M105.3,183.3c7.1,0.2,13.1-5.6,13.1-12.6c0-7-5.5-12.7-12.4-12.9c-7-0.1-12.9,5.7-12.9,12.8
		C93.1,177.5,98.6,183.1,105.3,183.3z"/>
	<path class="st1" d="M238.9,106.8c6.8,0.1,12.7-5.6,12.7-12.5c0.1-7.2-5.6-13.1-12.6-13c-6.9,0-12.5,5.7-12.5,12.7
		C226.5,101,232,106.6,238.9,106.8z"/>
	<path class="st1" d="M371.7,314.3c-7,0-12.6,5.5-12.7,12.5c0,7,5.5,12.7,12.4,12.7c7.1,0,12.7-5.3,12.9-12.3
		C384.4,320.1,378.8,314.3,371.7,314.3z"/>
	<path class="st1" d="M239.2,389.4c-6.8,0-12.6,5.7-12.7,12.6c-0.1,7.2,5.7,13.1,12.7,13c6.8-0.1,12.5-5.9,12.5-12.8
		C251.7,395.2,246,389.4,239.2,389.4z"/>
	<path class="st1" d="M105.1,311.5c-7-0.1-12.8,5.8-12.7,12.9c0.1,6.9,5.7,12.4,12.8,12.5c6.7,0.1,12.6-5.8,12.5-12.7
		C117.6,317.3,111.9,311.5,105.1,311.5z"/>
	<path class="st1" d="M191.8,167.5h4.4c1.3,0,2.2,0.3,2.8,1c0.6,0.7,0.9,1.7,0.9,3.1c0,2.9-1.2,4.4-3.7,4.4h-4.4V167.5z"/>
	<path class="st1" d="M231.7,174.2c-0.6,0.7-1.5,1-2.7,1h-4.6v-7.6h4.6c1.2,0,2.1,0.3,2.7,1c0.6,0.6,0.9,1.6,0.9,2.8
		C232.6,172.6,232.3,173.5,231.7,174.2z"/>
</g>
</svg>
