<?xml version="1.0" encoding="utf-8"?>
<!-- Generator: Adobe Illustrator 20.0.0, SVG Export Plug-In . SVG Version: 6.00 Build 0)  -->
<svg version="1.1" id="Layer_1" xmlns="http://www.w3.org/2000/svg" xmlns:xlink="http://www.w3.org/1999/xlink" x="0px" y="0px"
	 viewBox="0 0 680 680" style="enable-background:new 0 0 680 680;" xml:space="preserve">
<style type="text/css">
	.st0{fill:#FFFFFF;}
	.st1{fill:#30B8CE;}
	.st2{opacity:0.9;}
	.st3{fill:#161717;}
</style>
<path id="XMLID_1_" class="st0" d="M553.8,680H126.2C56.5,680,0,623.5,0,553.8V0h680v553.8C680,623.5,623.5,680,553.8,680z"/>
<g id="XMLID_17_">
	<path class="st1" d="M546.5,382.9c0,0,0,1.2,0,3.4c0,1.1,0,2.5-0.1,4.2c0,1.7-0.2,3.6-0.3,5.8c-0.6,8.7-1.8,21.5-6.2,37.3
		c-1.1,3.9-2.5,8-4.1,12.3c-1.6,4.3-3.5,8.6-5.7,13.1c-4.4,8.9-10.2,18.2-17.6,27.2c-7.4,9-16.5,17.6-27.2,25.4
		c-10.7,7.7-22.9,14.5-36.2,19.9c-13.3,5.5-27.8,9.5-43,12.3c-15.2,2.7-31.1,4.1-47.4,4.1c-2,0-4.1,0-6.1-0.1l-1.5,0l-1.6,0l-3-0.1
		c-2.1-0.1-4.2-0.2-6.2-0.3c-2.1-0.1-4.1-0.3-6.2-0.4c-8.3-0.7-16.7-1.7-25.1-3.2c-16.8-2.8-33.8-7.4-50.3-13.7
		c-16.5-6.4-32.6-14.8-47.2-25.7c-14.6-10.9-27.6-24.4-37.4-40.3c-9.9-15.8-16.6-33.8-20-52.4c-0.9-4.6-1.6-9.3-2.1-14
		c-0.5-4.7-0.8-9.4-1-14.2c-0.3-9.3-0.5-18.7-0.3-28c0.1-9.4,0.6-18.8,1.3-28.2c0.8-9.4,2-18.8,3.6-28.1
		c3.3-18.7,8.7-37.2,17.5-54.5c4.4-8.6,9.7-16.8,16-24.3c6.3-7.5,13.5-14.2,21.6-19.8c8-5.6,16.7-10.1,25.7-13.4
		c9-3.4,18.2-5.6,27.3-7c4.6-0.7,9.1-1.2,13.7-1.5c2.3-0.2,4.5-0.2,6.8-0.4c1.1,0,2.3,0,3.4-0.1l1.7,0l1,0l0.8,0
		c2.1,0,4.2,0,6.5,0.1l3.4,0.1l3.3,0.2c4.4,0.3,8.8,0.7,13.1,1.2c8.6,1,17.1,2.5,25.3,4.4c8.2,1.8,16.3,3.9,24.1,6.4
		c7.8,2.4,15.4,5.1,22.8,8.1c7.4,2.9,14.5,6.1,21.5,9.4c13.8,6.7,26.6,14.2,38.4,22.3c11.7,8,22.4,16.6,31.9,25.3
		c4.8,4.4,9.2,8.8,13.4,13.3c4.2,4.5,8.1,8.9,11.7,13.4c14.5,17.9,24.4,35.5,30.3,50.7c6.1,15.3,8.3,28,9.2,36.7
		c0.1,1.1,0.2,2.1,0.3,3.1c0.1,1,0.1,1.9,0.2,2.7c0.1,1.7,0.2,3.1,0.2,4.2C546.5,381.7,546.5,382.8,546.5,382.9L546.5,382.9z
		 M544.6,382.8c0,0,0-1.1-0.1-3.4c0-1.1-0.1-2.5-0.2-4.1c-0.1-0.8-0.1-1.7-0.2-2.6c-0.1-0.9-0.2-1.9-0.3-3c-1-8.5-3.6-21-10.2-35.6
		c-6.7-14.6-17.5-31-33.2-46.7c-7.8-7.9-16.7-15.6-26.7-23c-5-3.7-10.2-7.4-15.6-10.9c-5.4-3.6-11.1-7-17-10.3
		c-11.8-6.7-24.4-13-37.8-18.8c-6.7-2.9-13.6-5.6-20.6-8.2c-7.1-2.6-14.3-4.9-21.7-7c-7.4-2.1-15-4-22.7-5.6
		c-7.7-1.6-15.6-2.8-23.5-3.8c-4-0.4-8-0.8-12-1.1l-3-0.2l-2.9-0.1c-1.9-0.1-4.1-0.1-6.2-0.2l-0.8,0l-0.6,0l-1.5,0c-1,0-2,0-3,0
		c-2,0.1-4,0.1-6.1,0.3c-4,0.2-8.1,0.7-12.1,1.2c-8,1.1-15.9,2.9-23.5,5.6c-7.6,2.6-14.9,6.2-21.7,10.6
		c-13.6,8.8-24.6,21.7-32.8,36.7c-8.2,15-13.8,31.9-17.8,49.3c-2,8.7-3.6,17.6-4.9,26.6c-1.3,9-2.3,18-3,27.2
		c-0.8,9.1-1.3,18.2-1.6,27.4c-0.3,9,0,18,1.1,26.9c1.1,8.9,3,17.7,5.8,26.2c2.8,8.5,6.5,16.7,11,24.3c9,15.4,21.5,28.4,35.8,38.6
		c14.3,10.1,30.2,17.4,46.5,22.3c8.1,2.5,16.4,4.4,24.6,5.9c8.2,1.5,16.4,2.6,24.6,3.2c8.1,0.7,16.2,1.1,24.2,1.2c2,0.1,4,0,6,0
		c2,0,3.9,0,5.9-0.1l3-0.1l1.4,0l1.5,0c2-0.1,3.9-0.1,5.8-0.2c31-1.4,60-6.2,85.3-14.8c3.2-1.1,6.3-2.2,9.3-3.4c3-1.2,6-2.4,8.9-3.8
		c5.8-2.6,11.4-5.5,16.7-8.5c10.5-6.1,19.8-13.1,27.7-20.8c7.8-7.6,14.3-15.8,19.3-23.9c2.5-4.1,4.7-8.2,6.6-12.1
		c1.9-4,3.4-7.9,4.8-11.7c1.3-3.8,2.4-7.4,3.3-10.9c0.9-3.5,1.6-6.7,2.2-9.8c1.1-6.1,1.7-11.4,2-15.7c0.2-2.2,0.3-4.1,0.3-5.7
		c0.1-1.6,0.1-3,0.1-4.1C544.6,384,544.6,382.8,544.6,382.8L544.6,382.8z"/>
</g>
<g id="XMLID_16_" class="st2">
	<g>
		<rect x="349.4" y="303.6" class="st1" width="38.9" height="143.4"/>
		<rect x="436.2" y="303.6" class="st1" width="38.9" height="143.4"/>
		<rect x="364.5" y="359.2" class="st1" width="96.5" height="28.4"/>
		<g>
			<path class="st1" d="M221.7,382.6h28.4v10.9h-18.4v12.6h17.2V417h-17.2v22.7h-10V382.6z"/>
			<path class="st1" d="M262.5,393.1c-3.3,0-5.3-3-5.3-6.5c0-3.7,2-6.6,5.3-6.6s5.3,2.9,5.3,6.6
				C267.9,390.1,265.9,393.1,262.5,393.1L262.5,393.1z M257.5,439.8v-41.5h10v41.5H257.5z"/>
			<path class="st1" d="M283.3,398.3l4.7,19.5c0.8,3.5,1.4,6.5,1.9,9.6h0.3c0.5-3.1,1.1-6.1,1.9-9.6l4.5-19.5h10.7l-12.5,41.5h-10.2
				l-12.1-41.5H283.3z"/>
			<path class="st1" d="M319.5,423.2c0.3,5,4.7,7.5,9.4,7.5c3.5,0,6.4-0.5,9.4-1.9l1.3,9c-3.5,2-7.5,2.9-12.1,2.9
				c-11.1,0-17.5-8.5-17.5-21.4c0-9.3,4.7-22.1,16.6-22.1c11.1,0,14.8,11.6,14.8,21.1c0,2-0.2,4-0.4,4.8H319.5z M332,414.1
				c0-2.4-1-8.1-6-8.1c-4.5,0-6.4,4.8-6.7,8.1H332z"/>
		</g>
		<path class="st3" d="M207.5,469.9h262.7l-8.8,2.6c-82.5,24.6-169.4,24-251.6-1.9L207.5,469.9z"/>
		<rect x="225.1" y="307.1" class="st3" width="98.5" height="16.1"/>
		<path class="st3" d="M323.6,366.8H213.4c0-2.8,20.5-16.1,64.1-16.1h46.1V366.8z"/>
		<rect x="321" y="307" class="st3" width="16.1" height="59.9"/>
	</g>
</g>
</svg>
