<?xml version="1.0" encoding="utf-8"?>
<!-- Generator: Adobe Illustrator 22.0.1, SVG Export Plug-In . SVG Version: 6.00 Build 0)  -->
<svg version="1.1" id="Layer_1" xmlns="http://www.w3.org/2000/svg" xmlns:xlink="http://www.w3.org/1999/xlink" x="0px" y="0px"
	 viewBox="0 0 500 500" style="enable-background:new 0 0 500 500;" xml:space="preserve">
<style type="text/css">
	.st0{fill:none;}
	.st1{fill:#FFFFFF;}
	.st2{fill:#30B6CC;}
</style>
<path class="st0" d="M351.8,216.7c-0.5-57.7-48-100.8-101.3-101c-56.3-0.1-101.9,45.2-101.4,101.6c-0.4,54.5,42.9,100.3,100.6,101.4
	c0.8,0,1.6,0,2.4,0C304.9,318.1,352.2,271.1,351.8,216.7z M251.4,310.1c-54,0.1-93.4-43.1-93.9-92.2c-0.5-51.7,40.4-93.6,91.8-93.9
	c53.8-0.3,94,42.4,93.9,92.1C343.9,269.1,301.6,310,251.4,310.1z"/>
<path class="st0" d="M149.1,217.2c-0.6-56.3,45.1-101.7,101.4-101.6c0,0,0,0-0.1,0c-56.3-0.2-102,45.2-101.5,101.6
	c-0.4,54.5,42.9,100.3,100.6,101.4c0.8,0,1.7,0,2.5,0c-0.8,0-1.6,0-2.4,0C192,317.6,148.7,271.7,149.1,217.2z"/>
<path class="st0" d="M384.6,186.7c-4.1-7.7-6.8-15.7-7.9-24.5c-0.9-7.3-2.7-14.5-4.7-21.5c-3.4-11.8-12.7-18.4-23.1-23.2
	c-13.5-6.2-24.9-14.8-34.8-25.7c-11.7-12.8-26-16.9-43.1-13.5c-13.5,2.7-27.2,3.4-41,0c-13.3-3.2-26.5-1.6-37.5,7.9
	c-3.4,2.9-6.8,5.8-9.8,9.2c-8.2,9.2-18.3,15.7-29.4,20.7c-16.1,7.3-26.8,18.8-28.5,37.1c-1.4,14.7-6.1,28.2-13.5,41
	c-7.7,13.2-8.7,27.3-1.8,41.4c1.5,3.1,2.7,6.4,4.5,9.3c6,9.8,8.8,20.6,10,31.9c1.9,18.1,9.4,32.2,26.6,40c1.4,0.7,2.8,1.5,4.3,2.1
	c6.2,2.7,12,6,17.3,10.1c-9.6,24.3-19.2,48.6-28.8,72.8c-2.4,6.2-4.1,10.2-5.2,11.7c-0.3,0.5-1.4,2-1.4,4.2c0,0.1,0,0.2,0,0.4
	c0.1,2,1.4,3.9,3.1,4.9c2,1.1,4.2,0.4,7.4-0.6c15.9-5,18.3-5.8,18.8-6c0,0,3.4-1.2,6.6-2.3c12.1-4.1,22.6-6.8,30.6-8.9
	c8.1-2.1,9.3-2.2,14.3-3.7c5.7-1.7,6.9-2.4,11.7-3.7c5.9-1.5,10.5-2.2,13.4-2.6c4.1-0.6,9.6-1.3,16-1.1c9.3,0.2,16.2,2.1,23.7,4.3
	c8.7,2.5,8.5,3.3,19.4,6.6c8.1,2.4,8.3,2,16,4.3c7.7,2.3,14.2,4.8,18.8,6.6c5.7,2.2,11.8,3.4,17.4,5.7c0.8,0.3,3.6,1.4,7.1,1.1
	c1.5-0.1,3.8-0.3,5.1-1.7c2.2-2.2,1.8-7-1.1-11.7l-36.2-80.8c2.9-2.2,5.8-4.2,8.8-6.1c6.5-4.2,13.6-7.4,20.4-11.2
	c8.3-4.7,12.9-12.2,15.3-21.1c1.1-4,2.1-8.1,2.5-12.3c1.2-11.4,3.6-22.4,10-32.3c2.5-3.8,4-8.3,5.9-12.5c4.1-8.9,4.9-18.1,1.5-27.3
	C390.8,199,387.8,192.7,384.6,186.7z M371.6,239.6c-5.2,8.4-8.4,17.5-9.7,27.4c-1,7.7-3,15.2-4.9,22.7c-0.5,2.1-2.1,4.3-3.8,5.5
	c-5.5,3.9-11.1,7.9-17.1,10.8c-9.5,4.6-18,10.1-25.2,17.9c-2.4,2.5-5.1,4.7-7.4,7.3c-5.9,6.8-13,10.5-20.9,10.5
	c-2.7,0-5.4-0.3-8.3-1.1c-7.4-2-14.7-2.8-22-2.9c-9.4,0-18.8,1.3-28.2,3.3c-1.8,0.4-3.6,0.6-5.3,0.6c-7.2,0.2-13.5-2.6-19-7.8
	c-4.7-4.5-9.4-9-13.8-13.7c-0.8-0.8-1.7-1.6-2.5-2.4c-7.3-6.6-16.1-10.6-24.9-14.5c-13-5.8-18.9-15.5-19.5-29.4
	c-0.6-12.4-4.2-24-10.6-34.7c-2.1-3.5-3.7-7.2-5.4-10.8c-3.4-7.3-3.7-14.7-0.2-22.1c2-4.3,3.9-8.7,6.3-12.8
	c6.9-11.7,9-24.7,10.7-37.9c1.4-11.2,6.5-19.6,17.4-24.3c15-6.5,28.6-15.2,39-28.4c5-6.2,11.8-10.4,20.3-10.4c0.6,0,1.2,0,1.8,0
	c7.8,1,15.7,1.7,23.5,3.1c2.9,0.5,5.8,0.8,8.7,0.8c6.4,0,12.7-1.1,18.9-2.4c4-0.8,7.9-1.3,11.6-1.3c8.2,0,15.7,2.6,22.1,9.9
	c11,12.6,24,22.3,39.5,28.7c12.8,5.3,17.2,16,18.5,28.8c1.3,12.5,3.9,24.7,11,35.5c0.9,1.4,1.4,3.2,2.3,4.6
	C383.7,214.1,379.4,226.9,371.6,239.6z"/>
<path class="st1" d="M495.9,260.7c-7.1-125.2-137.2-234.8-266-241.2c-20.3-1-104.5-5.2-166.2,54.8C5.6,130.8,4.5,208.4,3.9,245.5
	c-0.5,34.3-1.4,98.8,42.2,154.7c63,80.7,169.8,80.7,199.7,80.7c23.7,0,152.7,0,217.2-98.3C469.5,372.7,499.5,325.1,495.9,260.7z
	 M391.7,232.8c-1.9,4.2-3.4,8.6-5.9,12.5c-6.3,9.9-8.7,20.9-10,32.3c-0.4,4.1-1.4,8.2-2.5,12.3c-2.4,8.9-7,16.5-15.3,21.1
	c-6.8,3.8-13.9,7-20.4,11.2c-3,1.9-6,3.9-8.8,6.1L365,409c2.9,4.7,3.3,9.5,1.1,11.7c-1.4,1.4-3.7,1.6-5.1,1.7
	c-3.6,0.3-6.4-0.8-7.1-1.1c-5.7-2.3-11.7-3.5-17.4-5.7c-4.6-1.8-11.2-4.2-18.8-6.6c-7.7-2.3-7.9-1.9-16-4.3
	c-11-3.2-10.7-4.1-19.4-6.6c-7.5-2.1-14.4-4.1-23.7-4.3c-6.4-0.1-11.9,0.6-16,1.1c-2.9,0.4-7.6,1-13.4,2.6c-4.8,1.3-6,2-11.7,3.7
	c-4.9,1.5-6.1,1.6-14.3,3.7c-8,2-18.5,4.7-30.6,8.9c-3.2,1.1-6.6,2.3-6.6,2.3c-0.6,0.2-2.9,1-18.8,6c-3.3,1-5.4,1.6-7.4,0.6
	c-1.7-0.9-3-2.9-3.1-4.9c0-0.1,0-0.2,0-0.4c0.1-2.2,1.1-3.7,1.4-4.2c1-1.5,2.7-5.5,5.2-11.7c9.6-24.3,19.2-48.6,28.8-72.8
	c-5.2-4.1-11-7.4-17.3-10.1c-1.4-0.6-2.8-1.5-4.3-2.1c-17.2-7.8-24.7-21.9-26.6-40c-1.2-11.3-4-22.1-10-31.9c-1.8-2.9-3-6.2-4.5-9.3
	c-6.9-14.1-5.9-28.2,1.8-41.4c7.5-12.8,12.1-26.3,13.5-41c1.7-18.3,12.4-29.8,28.5-37.1c11.1-5,21.2-11.5,29.4-20.7
	c3-3.3,6.4-6.2,9.8-9.2c11-9.5,24.2-11.1,37.5-7.9c13.9,3.4,27.5,2.7,41,0c17.1-3.4,31.5,0.7,43.1,13.5
	c9.9,10.9,21.3,19.5,34.8,25.7c10.3,4.8,19.7,11.4,23.1,23.2c2,7,3.7,14.3,4.7,21.5c1.1,8.7,3.8,16.7,7.9,24.5
	c3.2,6.1,6.2,12.3,8.6,18.8C396.6,214.6,395.8,223.8,391.7,232.8z"/>
<path class="st1" d="M186.1,320.1c-7.7-8-17.6-12.6-27.4-16.9c-13-5.8-18.9-15.5-19.5-29.4c-0.6-12.4-4.2-24-10.6-34.7
	c-2.1-3.5-3.7-7.2-5.4-10.8c-3.4-7.3-3.7-14.7-0.2-22.1c2-4.3,3.9-8.7,6.3-12.8c6.9-11.7,9-24.7,10.7-37.9
	c1.4-11.2,6.5-19.6,17.4-24.3c15-6.5,28.6-15.2,39-28.4c4.9-6.2,11.7-10.3,20.1-10.4c-8.5,0-15.3,4.1-20.3,10.4
	c-10.5,13.2-24,21.9-39,28.4c-10.9,4.7-15.9,13.1-17.4,24.3c-1.7,13.2-3.8,26.2-10.7,37.9c-2.4,4.1-4.3,8.5-6.3,12.8
	c-3.5,7.4-3.2,14.8,0.2,22.1c1.7,3.6,3.4,7.3,5.4,10.8c6.4,10.7,10,22.3,10.6,34.7c0.6,13.9,6.5,23.6,19.5,29.4
	c8.8,3.9,17.6,8,24.9,14.5c0.9,0.8,1.7,1.6,2.5,2.4c4.5,4.7,9.1,9.2,13.8,13.7c5.5,5.2,11.8,8,19,7.8c-7.1,0.1-13.3-2.6-18.8-7.8
	C195.2,329.3,190.6,324.8,186.1,320.1z"/>
<path class="st1" d="M252.2,337.7c7.3,0,14.7,0.9,22,2.9c2.9,0.8,5.6,1.1,8.3,1.1c-2.6,0-5.3-0.3-8.1-1.1
	C267,338.6,259.6,337.7,252.2,337.7z"/>
<path class="st1" d="M281.1,92.6c-3.7,0-7.6,0.5-11.6,1.3c-6.2,1.3-12.5,2.4-18.9,2.4c6.4,0,12.8-1.1,19.1-2.4
	C273.6,93.1,277.4,92.6,281.1,92.6z"/>
<path class="st2" d="M241.6,95.6c3,0.6,6,0.8,8.9,0.8c-2.9,0-5.8-0.2-8.7-0.8c-7.8-1.4-15.6-2.1-23.5-3.1c-0.6,0-1.2,0-1.8,0
	c0.5,0,1.1,0,1.6,0C226,93.5,233.9,94.1,241.6,95.6z"/>
<path class="st2" d="M372.2,195.5c-7.2-10.8-9.7-22.9-11-35.5c-1.3-12.8-5.7-23.5-18.5-28.8c-15.5-6.4-28.5-16.1-39.5-28.7
	c-6.4-7.3-13.9-9.9-22.1-9.9c8.2,0.1,15.6,2.7,21.9,9.9c11,12.6,24,22.3,39.5,28.7c12.8,5.3,17.2,16,18.5,28.8
	c1.3,12.5,3.9,24.7,11,35.5c0.9,1.4,1.4,3.2,2.3,4.6c9.2,13.9,4.9,26.8-2.9,39.5c-5.2,8.4-8.4,17.5-9.7,27.4c-1,7.7-3,15.2-4.9,22.7
	c-0.5,2.1-2.1,4.3-3.8,5.5c-5.5,3.9-11.1,7.9-17.1,10.8c-4.7,2.3-9.3,4.8-13.5,7.7c-4.2,2.9-8.2,6.3-11.7,10.1
	c-2.4,2.5-5.1,4.7-7.4,7.3c-5.8,6.8-12.8,10.4-20.7,10.5c8-0.1,15.1-3.7,20.9-10.5c2.2-2.6,5-4.8,7.4-7.3
	c7.2-7.7,15.7-13.3,25.2-17.9c6-2.9,11.6-6.9,17.1-10.8c1.7-1.2,3.3-3.5,3.8-5.5c1.9-7.5,3.9-15.1,4.9-22.7c1.3-9.9,4.5-19,9.7-27.4
	c7.8-12.7,12.1-25.5,2.9-39.5C373.6,198.7,373.2,196.9,372.2,195.5z"/>
<path class="st2" d="M218.8,341.6c1.7,0,3.5-0.2,5.3-0.6c9.4-1.9,18.8-3.3,28.2-3.3c-9.5,0-18.9,1.3-28.3,3.3
	C222.1,341.3,220.4,341.5,218.8,341.6z"/>
<path class="st1" d="M303.3,331.2c2.2-2.6,5-4.8,7.4-7.3c3.6-3.9,7.5-7.2,11.7-10.1c4.2-2.9,8.7-5.5,13.5-7.7
	c6-2.9,11.6-6.9,17.1-10.8c1.7-1.2,3.3-3.5,3.8-5.5c1.9-7.5,3.9-15.1,4.9-22.7c1.3-9.9,4.5-19,9.7-27.4c7.8-12.7,12.1-25.5,2.9-39.5
	c-0.9-1.4-1.4-3.2-2.3-4.6c-7.2-10.8-9.7-22.9-11-35.5c-1.3-12.8-5.7-23.5-18.5-28.8c-15.5-6.4-28.5-16.1-39.5-28.7
	c-6.3-7.3-13.8-9.9-21.9-9.9c-3.7,0-7.5,0.5-11.5,1.3c-6.3,1.3-12.6,2.4-19.1,2.4c-2.9,0-5.9-0.2-8.9-0.8
	c-7.8-1.4-15.6-2.1-23.5-3.1c-0.5,0-1.1,0-1.6,0c-8.4,0.1-15.2,4.2-20.1,10.4c-10.5,13.2-24,21.9-39,28.4
	c-10.9,4.7-15.9,13.1-17.4,24.3c-1.7,13.2-3.8,26.2-10.7,37.9c-2.4,4.1-4.3,8.5-6.3,12.8c-3.5,7.4-3.2,14.8,0.2,22.1
	c1.7,3.6,3.4,7.3,5.4,10.8c6.4,10.7,10,22.3,10.6,34.7c0.6,13.9,6.5,23.6,19.5,29.4c9.8,4.4,19.7,8.9,27.4,16.9
	c4.5,4.7,9.1,9.2,13.8,13.7c5.5,5.2,11.7,7.9,18.8,7.8c1.7,0,3.4-0.2,5.1-0.6c9.4-1.9,18.9-3.3,28.3-3.3c7.4,0,14.8,0.8,22.2,2.9
	c2.8,0.8,5.5,1.1,8.1,1.1C290.5,341.6,297.5,337.9,303.3,331.2z M252.1,318.6c-0.8,0-1.7,0-2.5,0c-57.7-1.1-101-46.9-100.6-101.4
	c-0.6-56.4,45.1-101.7,101.5-101.6c0,0,0,0,0.1,0c0,0,0.1,0,0.1,0c53.4,0.2,100.8,43.3,101.3,101C352.4,271.2,305,318.2,252.1,318.6
	z"/>
<path class="st1" d="M351.9,216.7c-0.5-57.8-48-100.9-101.3-101c0,0-0.1,0-0.1,0c53.3,0.2,100.8,43.3,101.3,101
	c0.5,54.4-46.8,101.4-99.7,101.9C305,318.2,352.4,271.2,351.9,216.7z"/>
<path class="st1" d="M249.4,124.1c-51.4,0.3-92.3,42.2-91.8,93.9c0.4,49.1,39.9,92.3,93.9,92.2c50.1-0.1,92.5-41,91.9-93.9
	C343.4,166.5,303.2,123.8,249.4,124.1z M252,303.7c-49.7,0.9-88.4-37.8-88.6-86.6c-0.1-52.3,42.2-87.4,87-86.7
	c45.2-1.1,86.4,36,86.7,84.9C337.6,265.7,298.2,302.8,252,303.7z"/>
<g>
	<path class="st0" d="M250.5,130.4c-44.8-0.8-87.2,34.3-87,86.7c0.1,48.9,38.8,87.6,88.6,86.6c46.1-0.8,85.5-38,85.2-88.4
		C336.9,166.4,295.7,129.3,250.5,130.4z M324.2,199c-11.3,9.6-22.4,19.3-33.7,28.8c-1.9,1.6-2.3,2.9-1.7,5.3
		c3.5,14.1,6.8,28.3,10.2,42.4c0.6,2.6,0.9,5.1-1.6,6.9c-2.4,1.7-4.6,0.6-6.8-0.8c-12.5-7.7-25-15.3-37.5-23c-1.8-1.1-3.1-1.2-5-0.1
		c-12.4,7.7-24.8,15.2-37.2,22.8c-1.4,0.9-3.2,1.7-4.8,1.8c-3.3,0.1-5-3-4.1-6.9c3.4-14.4,6.7-28.8,10.3-43.1c0.6-2.6,0-4-1.9-5.6
		c-11.2-9.5-22.3-19-33.4-28.6c-3.4-2.9-3.5-6.4-0.4-8.4c0.9-0.6,2.2-0.8,3.3-0.9c14.5-1.2,29-2.4,43.5-3.4c3-0.2,4.4-1.3,5.5-4.1
		c5.4-13.4,11-26.6,16.6-40c1-2.4,2.3-4.4,4.9-4.3c3.3,0.1,4.4,2.3,5.4,4.6c5.5,13.2,11.1,26.4,16.4,39.7c1.2,3,2.9,3.9,5.9,4.1
		c14.4,1,28.8,2.2,43.2,3.5c1.9,0.2,4.2,1.6,5.2,3.2C327.6,195.2,326.1,197.4,324.2,199z"/>
	<path class="st1" d="M326.3,193c-1-1.6-3.3-3-5.2-3.2c-14.4-1.4-28.8-2.5-43.2-3.5c-3-0.2-4.7-1.1-5.9-4.1
		c-5.3-13.3-10.9-26.5-16.4-39.7c-1-2.3-2.1-4.5-5.4-4.6c-2.6,0-3.9,1.9-4.9,4.3c-5.5,13.3-11.2,26.6-16.6,40
		c-1.1,2.8-2.6,3.9-5.5,4.1c-14.5,1-29,2.2-43.5,3.4c-1.1,0.1-2.4,0.3-3.3,0.9c-3.1,2-3,5.5,0.4,8.4c11.1,9.6,22.2,19.1,33.4,28.6
		c1.9,1.6,2.5,3,1.9,5.6c-3.6,14.3-6.9,28.7-10.3,43.1c-0.9,3.8,0.9,7,4.1,6.9c1.6-0.1,3.3-0.9,4.8-1.8
		c12.4-7.5,24.9-15.1,37.2-22.8c1.9-1.2,3.2-1.1,5,0.1c12.5,7.7,25,15.3,37.5,23c2.2,1.3,4.3,2.5,6.8,0.8c2.5-1.8,2.2-4.3,1.6-6.9
		c-3.4-14.1-6.7-28.3-10.2-42.4c-0.6-2.4-0.2-3.8,1.7-5.3c11.3-9.5,22.5-19.2,33.7-28.8C326.1,197.4,327.6,195.2,326.3,193z
		 M264.1,199.2c3.4-1.8,6.9-3.1,10.7-3.8c1.6-0.3,2.9,0.3,3.5,1.7c0.6,1.2,0.7,2.5,1.1,3.8c0.1,0.4,0.4,0.7,0.6,1.1
		c0.2-0.4,0.6-0.8,0.7-1.1c0.1-1.6-0.5-3.3-1.5-5.2c0.3,0.2,0.7,0.3,1,0.6c2.7,2.2,2.2,7-0.8,8.6c-0.3,0.2-0.7,0.1-1,0.2
		c-3.4,0.3-6.9,0.6-10.3,0.9c-0.7,0.1-1.3,0.3-2,0.6c-1.3,0.4-2.3,0.1-2.9-1.1c-0.8-1.5-1-3.1-0.3-4.7
		C263.1,200.1,263.6,199.5,264.1,199.2z M270.2,237.9c-4.2-0.9-8.2-0.5-12.3,0.2c-4.1,0.6-8.1,0.6-12.1-0.7c-3.2-1-5.2-3.1-5.7-6.6
		c-0.1-0.4-0.4-1-0.7-1c-0.7-0.1-0.9,0.5-0.8,1.1c0.4,1.5,0.9,3.1,1.4,4.6c-6.6,0.7-13.4,1.4-20.4,2.1c-0.7-8.8-1.4-17.6-2.2-26.5
		c6.3-0.7,12.6-0.2,18.4-2c0.4,2.3,0.8,4.8,1.2,7.2c0.1,0.6,0.1,1.6,1.1,1.4c1.1-0.3,0.5-1.2,0.3-1.8c-1.6-5-1-9.7,2.1-14
		c1.3-1.8,2.4-3.7,3.7-5.5c2-2.6,3-5.5,3.8-8.5c1.3-4.9,1.7-9.9,0.9-14.9c-0.2-1.3,0.4-1.9,1.8-1.7c1.5,0.1,2.6,1,3.6,2.1
		c2.1,2.6,3.1,5.6,3.5,8.9c0.2,1.3,0.1,2.7,0.1,4c0,1.3-0.1,2.5,0,3.8c0.1,3.7,1.5,6.7,5.3,8c-3,2.9-3,7.1,0.1,9.8
		c-2.6,3.4-1.5,6.4,0.8,9.5c-1.4,0.9-2,2.4-2.2,4.1c-0.2,1.7,0.2,3.1,1.2,4.4c-3.1,2.2-2.5,6.7,1.1,8.2c1.9,0.8,3.9,1.4,5.9,2.1
		c0.2,0.1,0.6-0.2,0.9-0.3c-0.2-0.3-0.3-0.9-0.5-1c-1-0.4-2.1-0.7-3.1-1.1c-1.2-0.5-2.4-0.9-3.5-1.5c-1.1-0.6-1.6-1.6-1.5-2.8
		c0.1-1.5,1-2.5,2.5-2.4c1.5,0.1,3,0.4,4.5,0.7c1.6,0.3,3.2,0.7,4.9,1c1,0.2,1.5,0.8,1.3,1.7c-0.2,0.9-0.6,1.8-0.8,2.7
		c-0.1,0.4,0,0.8,0,1.1c0.4-0.2,0.9-0.3,1.1-0.6c0.5-1.2,0.9-2.4,1.4-4c0.2,0.8,0.5,1.5,0.5,2.1
		C277.6,235.5,273.9,238.7,270.2,237.9z M279.9,228.1c-0.7,0.7-1.4,0.8-2.5,0.3c-2-0.9-4.2-1.4-6.3-1.9c-1.7-0.4-3.5-0.7-5.3-1.1
		c-2-0.4-2.8-1.7-2.6-4.1c0.3-2.2,1.3-3.2,3.4-3.1c4.1,0.1,8.2,0.2,12.3,0.3c0.4,0,0.9,0.4,1.1,0.8c0.6,1.7,0.1,3.3-0.7,4.9
		c-0.3,0.5-1.1,1.3-0.1,1.7c0.8,0.4,1-0.7,1.3-1.2c1-1.8,1.2-3.1,1-5.8c0.1-0.1,0.2-0.1,0.3-0.2c0.3,0.7,0.8,1.3,0.9,2
		C282.9,223.7,281.9,226.2,279.9,228.1z M281.9,215.5c-0.5,1-1.2,1.6-2.5,1.6c-4.1-0.2-8.2-0.2-12.4-0.3c-1.3,0-2.3-0.6-2.8-1.7
		c-0.5-1-0.9-2-1.1-3c-0.2-1.4,0.3-2.6,1.6-3.4c2.6-1.5,5.5-1.8,8.5-2.1c1.3-0.1,2.6-0.1,3.9-0.2c1.1-0.1,1.7,0.4,2.2,1.3
		c0.8,1.6,1.1,3.2,0.8,4.9c0,0.1-0.1,0.3-0.1,0.4c0.1,0.4,0.3,0.8,0.4,1.1c0.3-0.3,0.7-0.6,0.8-0.9c0.5-1.9,0.2-3.8-0.6-5.6
		c-0.1-0.3-0.3-0.6-0.4-0.9c0.1-0.1,0.2-0.2,0.3-0.3c0.6,0.7,1.3,1.4,1.7,2.3C283.2,211,283,213.3,281.9,215.5z"/>
	<path class="st1" d="M223.9,223.5c-0.3,0-0.6,0.4-0.9,0.7c0.3,0.3,0.6,0.7,0.9,0.8c0.7,0.1,1.5,0,2.3,0c0,0,0,0,0,0
		c3.3-0.2,6.6-0.4,9.8-0.7c0.3,0,0.6-0.5,0.9-0.8c-0.3-0.2-0.7-0.7-1-0.7C231.9,223.1,227.9,223.3,223.9,223.5z"/>
	<path class="st1" d="M258.2,198.3c-0.2,0.3-0.6,0.6-0.6,0.9c0.1,1,0.3,1.9,0.5,2.9c0.9,3.7,1.4,7.5-0.1,11.2
		c-1.3,3.3-3.8,5.5-6.7,7.3c-0.3,0.2-0.4,0.7-0.6,1.1c0.4,0.1,1,0.4,1.3,0.2c5.3-3.1,8.5-7.4,8.5-15.1c-0.3-1.6-0.9-4.6-1.5-7.6
		C258.9,198.7,258.5,198.5,258.2,198.3z"/>
</g>
</svg>
