<?xml version="1.0" encoding="utf-8"?>
<!-- Generator: Adobe Illustrator 22.0.1, SVG Export Plug-In . SVG Version: 6.00 Build 0)  -->
<svg version="1.1" id="Layer_1" xmlns="http://www.w3.org/2000/svg" xmlns:xlink="http://www.w3.org/1999/xlink" x="0px" y="0px"
	 viewBox="0 0 500 500" style="enable-background:new 0 0 500 500;" xml:space="preserve">
<style type="text/css">
	.st0{fill:#FFFFFF;}
</style>
<g>
	<path class="st0" d="M493.4,258.3c-7-124-135.8-232.4-263.4-238.8c-20.1-1-103.5-5.1-164.5,54.2C8,129.7,6.9,206.5,6.4,243.3
		c-0.5,34-1.4,97.8,41.8,153.2c62.4,79.9,168.2,79.9,197.7,79.9c23.5,0,151.2,0,215.1-97.3C467.3,369.2,497,322,493.4,258.3z
		 M238.3,417c-92.1,0-166.7-74.6-166.7-166.7c0-92.1,74.6-166.7,166.7-166.7c92.1,0,166.7,74.6,166.7,166.7
		C405,342.3,330.4,417,238.3,417z"/>
	<path class="st0" d="M238.3,91.6c-87.5,0-158.7,71.2-158.7,158.7c0,87.5,71.2,158.7,158.7,158.7c87.5,0,158.7-71.2,158.7-158.7
		C397,162.8,325.8,91.6,238.3,91.6z M329.3,285.7h-93.5c-2.8,1.9-6.2,3-9.8,3c-9.7,0-17.5-7.8-17.5-17.5c0-5.2,2.3-9.9,6-13.1V128.4
		c0-5.5,5.4-10,12.1-10c6.6,0,12.1,4.5,12.1,10v130.7c0,0,0,0,0.1,0.1l75.1-75.1c1.1-1.1,2.9-1.1,4.1,0c1.1,1.1,1.1,2.9,0,4.1
		L241.9,264c0.2,0.5,0.5,1.1,0.7,1.7h86.8c6.6,0,12.1,4.5,12.1,10C341.4,281.2,335.9,285.7,329.3,285.7z"/>
</g>
</svg>
